<svg width="473" height="165" viewBox="0 0 473 165" fill="none" xmlns="http://www.w3.org/2000/svg">
<g clip-path="url(#clip0_258_15)">
<path d="M87.2844 88.061C87.2844 92.778 89.5104 95.587 93.0614 95.587C95.8174 95.587 97.4604 93.626 98.0434 90.976L105.41 93.838C104.244 98.502 99.8454 102.583 93.0084 102.583C84.7404 102.583 78.9104 96.647 78.9104 88.061C78.9104 79.422 84.7404 73.486 93.0084 73.486C99.7924 73.486 104.138 77.514 105.357 82.125L98.0434 85.093C97.4604 82.496 95.8174 80.482 93.0614 80.482C89.5104 80.482 87.2844 83.344 87.2844 88.061ZM135.051 88.061C135.051 96.753 129.274 102.583 121.059 102.583C112.791 102.583 107.067 96.753 107.067 88.061C107.067 79.369 112.791 73.486 121.059 73.486C129.274 73.486 135.051 79.369 135.051 88.061ZM115.494 88.061C115.494 92.937 117.667 95.693 121.059 95.693C124.451 95.693 126.624 92.937 126.624 88.061C126.624 83.185 124.451 80.429 121.059 80.429C117.667 80.429 115.494 83.185 115.494 88.061ZM147.828 86.047V102H139.348V74.069H147.828V76.825C149.365 75.076 151.909 73.486 155.46 73.486C158.799 73.486 161.555 74.917 163.145 77.302C164.735 75.553 167.491 73.486 171.784 73.486C177.455 73.486 181.218 77.461 181.218 83.556V102H172.738V85.994C172.738 83.185 171.625 81.118 168.922 81.118C166.696 81.118 164.523 82.761 164.523 86.047V102H156.043V85.994C156.043 83.185 154.983 81.118 152.227 81.118C150.001 81.118 147.828 82.761 147.828 86.047ZM186.55 71.207V63.946H195.189V71.207H186.55ZM195.083 74.069V102H186.603V74.069H195.083ZM200.629 102V74.069H209.109V76.825C210.646 75.076 213.243 73.486 216.794 73.486C222.518 73.486 226.122 77.461 226.122 83.556V102H217.642V85.994C217.642 83.185 216.476 81.118 213.72 81.118C211.388 81.118 209.109 82.761 209.109 86.047V102H200.629ZM258.24 98.661C258.24 107.3 252.145 111.911 243.559 111.911C236.616 111.911 231.74 109.049 230.256 103.59L238.312 101.682C239.001 104.067 241.015 105.498 243.824 105.498C247.269 105.498 249.707 103.749 249.707 99.615V97.813C248.382 99.668 245.52 101.099 242.181 101.099C234.549 101.099 230.15 94.951 230.15 87.319C230.15 79.687 234.549 73.486 242.181 73.486C245.52 73.486 248.382 74.97 249.707 76.825V74.069H258.24V98.661ZM249.813 86.895C249.813 82.761 247.534 80.482 244.354 80.482C240.75 80.482 238.789 83.185 238.789 87.266C238.789 91.4 240.75 94.103 244.354 94.103C247.534 94.103 249.813 91.824 249.813 87.743V86.895ZM271.84 97.919L276.239 92.195C278.518 94.686 282.122 96.17 285.143 96.17C287.369 96.17 289.224 95.428 289.224 93.944C289.224 92.089 287.369 91.877 282.917 91.082C278.306 90.181 273.377 88.962 273.377 82.92C273.377 77.249 278.412 73.486 285.302 73.486C290.337 73.486 294.789 75.394 297.121 77.938L292.881 83.397C290.761 81.171 288.005 79.952 285.249 79.952C283.182 79.952 281.857 80.747 281.857 82.019C281.857 83.556 283.5 83.768 286.892 84.404C291.927 85.411 297.545 86.63 297.545 92.937C297.545 99.032 291.927 102.583 284.825 102.583C279.949 102.583 274.437 100.94 271.84 97.919ZM327.331 88.061C327.331 96.753 321.554 102.583 313.339 102.583C305.071 102.583 299.347 96.753 299.347 88.061C299.347 79.369 305.071 73.486 313.339 73.486C321.554 73.486 327.331 79.369 327.331 88.061ZM307.774 88.061C307.774 92.937 309.947 95.693 313.339 95.693C316.731 95.693 318.904 92.937 318.904 88.061C318.904 83.185 316.731 80.429 313.339 80.429C309.947 80.429 307.774 83.185 307.774 88.061ZM357.868 88.061C357.868 96.753 352.091 102.583 343.876 102.583C335.608 102.583 329.884 96.753 329.884 88.061C329.884 79.369 335.608 73.486 343.876 73.486C352.091 73.486 357.868 79.369 357.868 88.061ZM338.311 88.061C338.311 92.937 340.484 95.693 343.876 95.693C347.268 95.693 349.441 92.937 349.441 88.061C349.441 83.185 347.268 80.429 343.876 80.429C340.484 80.429 338.311 83.185 338.311 88.061ZM362.165 102V74.069H370.645V76.825C372.182 75.076 374.779 73.486 378.33 73.486C384.054 73.486 387.658 77.461 387.658 83.556V102H379.178V85.994C379.178 83.185 378.012 81.118 375.256 81.118C372.924 81.118 370.645 82.761 370.645 86.047V102H362.165Z" fill="#D63020" style="fill:#D63020;fill:color(display-p3 0.8392 0.1882 0.1255);fill-opacity:1;"/>
</g>
<defs>
<clipPath id="clip0_258_15">
<rect width="473" height="165" fill="white" style="fill:white;fill-opacity:1;"/>
</clipPath>
</defs>
</svg>
