<svg width="310" height="49" viewBox="0 0 310 49" fill="none" xmlns="http://www.w3.org/2000/svg">
<path d="M9.28441 25.061C9.28441 29.778 11.5104 32.587 15.0614 32.587C17.8174 32.587 19.4604 30.626 20.0434 27.976L27.4104 30.838C26.2444 35.502 21.8454 39.583 15.0084 39.583C6.74041 39.583 0.910406 33.647 0.910406 25.061C0.910406 16.422 6.74041 10.486 15.0084 10.486C21.7924 10.486 26.1384 14.514 27.3574 19.125L20.0434 22.093C19.4604 19.496 17.8174 17.482 15.0614 17.482C11.5104 17.482 9.28441 20.344 9.28441 25.061ZM57.0507 25.061C57.0507 33.753 51.2737 39.583 43.0587 39.583C34.7907 39.583 29.0667 33.753 29.0667 25.061C29.0667 16.369 34.7907 10.486 43.0587 10.486C51.2737 10.486 57.0507 16.369 57.0507 25.061ZM37.4937 25.061C37.4937 29.937 39.6667 32.693 43.0587 32.693C46.4507 32.693 48.6237 29.937 48.6237 25.061C48.6237 20.185 46.4507 17.429 43.0587 17.429C39.6667 17.429 37.4937 20.185 37.4937 25.061ZM69.8278 23.047V39H61.3478V11.069H69.8278V13.825C71.3648 12.076 73.9088 10.486 77.4598 10.486C80.7988 10.486 83.5548 11.917 85.1448 14.302C86.7348 12.553 89.4908 10.486 93.7838 10.486C99.4548 10.486 103.218 14.461 103.218 20.556V39H94.7378V22.994C94.7378 20.185 93.6248 18.118 90.9218 18.118C88.6958 18.118 86.5228 19.761 86.5228 23.047V39H78.0428V22.994C78.0428 20.185 76.9828 18.118 74.2268 18.118C72.0008 18.118 69.8278 19.761 69.8278 23.047ZM108.55 8.207V0.945997H117.189V8.207H108.55ZM117.083 11.069V39H108.603V11.069H117.083ZM122.629 39V11.069H131.109V13.825C132.646 12.076 135.243 10.486 138.794 10.486C144.518 10.486 148.122 14.461 148.122 20.556V39H139.642V22.994C139.642 20.185 138.476 18.118 135.72 18.118C133.388 18.118 131.109 19.761 131.109 23.047V39H122.629ZM180.24 35.661C180.24 44.3 174.145 48.911 165.559 48.911C158.616 48.911 153.74 46.049 152.256 40.59L160.312 38.682C161.001 41.067 163.015 42.498 165.824 42.498C169.269 42.498 171.707 40.749 171.707 36.615V34.813C170.382 36.668 167.52 38.099 164.181 38.099C156.549 38.099 152.15 31.951 152.15 24.319C152.15 16.687 156.549 10.486 164.181 10.486C167.52 10.486 170.382 11.97 171.707 13.825V11.069H180.24V35.661ZM171.813 23.895C171.813 19.761 169.534 17.482 166.354 17.482C162.75 17.482 160.789 20.185 160.789 24.266C160.789 28.4 162.75 31.103 166.354 31.103C169.534 31.103 171.813 28.824 171.813 24.743V23.895ZM193.84 34.919L198.239 29.195C200.518 31.686 204.122 33.17 207.143 33.17C209.369 33.17 211.224 32.428 211.224 30.944C211.224 29.089 209.369 28.877 204.917 28.082C200.306 27.181 195.377 25.962 195.377 19.92C195.377 14.249 200.412 10.486 207.302 10.486C212.337 10.486 216.789 12.394 219.121 14.938L214.881 20.397C212.761 18.171 210.005 16.952 207.249 16.952C205.182 16.952 203.857 17.747 203.857 19.019C203.857 20.556 205.5 20.768 208.892 21.404C213.927 22.411 219.545 23.63 219.545 29.937C219.545 36.032 213.927 39.583 206.825 39.583C201.949 39.583 196.437 37.94 193.84 34.919ZM249.331 25.061C249.331 33.753 243.554 39.583 235.339 39.583C227.071 39.583 221.347 33.753 221.347 25.061C221.347 16.369 227.071 10.486 235.339 10.486C243.554 10.486 249.331 16.369 249.331 25.061ZM229.774 25.061C229.774 29.937 231.947 32.693 235.339 32.693C238.731 32.693 240.904 29.937 240.904 25.061C240.904 20.185 238.731 17.429 235.339 17.429C231.947 17.429 229.774 20.185 229.774 25.061ZM279.868 25.061C279.868 33.753 274.091 39.583 265.876 39.583C257.608 39.583 251.884 33.753 251.884 25.061C251.884 16.369 257.608 10.486 265.876 10.486C274.091 10.486 279.868 16.369 279.868 25.061ZM260.311 25.061C260.311 29.937 262.484 32.693 265.876 32.693C269.268 32.693 271.441 29.937 271.441 25.061C271.441 20.185 269.268 17.429 265.876 17.429C262.484 17.429 260.311 20.185 260.311 25.061ZM284.165 39V11.069H292.645V13.825C294.182 12.076 296.779 10.486 300.33 10.486C306.054 10.486 309.658 14.461 309.658 20.556V39H301.178V22.994C301.178 20.185 300.012 18.118 297.256 18.118C294.924 18.118 292.645 19.761 292.645 23.047V39H284.165Z" fill="#D63020" style="fill:#D63020;fill:color(display-p3 0.8392 0.1882 0.1255);fill-opacity:1;"/>
</svg>
