<svg width="473" height="165" viewBox="0 0 473 165" fill="none" xmlns="http://www.w3.org/2000/svg">
<g clip-path="url(#clip0_257_2)">
<path d="M52.128 97.919L56.527 92.195C58.806 94.686 62.41 96.17 65.431 96.17C67.657 96.17 69.512 95.428 69.512 93.944C69.512 92.089 67.657 91.877 63.205 91.082C58.594 90.181 53.665 88.962 53.665 82.92C53.665 77.249 58.7 73.486 65.59 73.486C70.625 73.486 75.077 75.394 77.409 77.938L73.169 83.397C71.049 81.171 68.293 79.952 65.537 79.952C63.47 79.952 62.145 80.747 62.145 82.019C62.145 83.556 63.788 83.768 67.18 84.404C72.215 85.411 77.833 86.63 77.833 92.937C77.833 99.032 72.215 102.583 65.113 102.583C60.237 102.583 54.725 100.94 52.128 97.919ZM82.0225 94.527V81.065H78.4715V74.069H82.0225V66.331H90.3965V74.069H95.8555V81.065H90.3965V92.354C90.3965 94.686 91.6155 95.11 93.7355 95.11C94.7425 95.11 95.2195 95.057 96.1735 94.951V101.894C94.6895 102.106 93.0995 102.265 91.0855 102.265C85.0435 102.265 82.0225 100.251 82.0225 94.527ZM117.762 74.016V82.178C116.861 82.019 116.225 81.966 115.271 81.966C111.614 81.966 108.699 84.245 108.699 88.273V102H100.219V74.069H108.699V77.726C109.971 75.5 112.674 73.91 115.907 73.91C116.702 73.91 117.232 73.963 117.762 74.016ZM128.716 102.53C123.098 102.53 119.07 99.138 119.07 94.209C119.07 88.432 123.946 86.1 129.829 85.252L136.083 84.192V83.715C136.083 81.648 134.97 80.323 132.214 80.323C129.776 80.323 128.504 81.436 127.974 83.662L119.865 82.443C121.084 77.514 125.483 73.486 132.585 73.486C139.899 73.486 144.404 76.825 144.404 83.344V94.103C144.404 95.534 144.934 95.958 146.577 95.746V102C141.701 102.795 138.415 101.894 136.984 99.509C135.129 101.417 132.373 102.53 128.716 102.53ZM136.083 91.983V89.704L131.207 90.552C128.981 90.976 127.338 91.665 127.338 93.626C127.338 95.375 128.663 96.329 130.677 96.329C133.486 96.329 136.083 94.845 136.083 91.983ZM150.32 102V74.069H158.8V76.825C160.337 75.076 162.934 73.486 166.485 73.486C172.209 73.486 175.813 77.461 175.813 83.556V102H167.333V85.994C167.333 83.185 166.167 81.118 163.411 81.118C161.079 81.118 158.8 82.761 158.8 86.047V102H150.32ZM207.932 98.661C207.932 107.3 201.837 111.911 193.251 111.911C186.308 111.911 181.432 109.049 179.948 103.59L188.004 101.682C188.693 104.067 190.707 105.498 193.516 105.498C196.961 105.498 199.399 103.749 199.399 99.615V97.813C198.074 99.668 195.212 101.099 191.873 101.099C184.241 101.099 179.842 94.951 179.842 87.319C179.842 79.687 184.241 73.486 191.873 73.486C195.212 73.486 198.074 74.97 199.399 76.825V74.069H207.932V98.661ZM199.505 86.895C199.505 82.761 197.226 80.482 194.046 80.482C190.442 80.482 188.481 83.185 188.481 87.266C188.481 91.4 190.442 94.103 194.046 94.103C197.226 94.103 199.505 91.824 199.505 87.743V86.895ZM226.131 102.583C217.704 102.583 211.98 96.7 211.98 88.008C211.98 79.74 217.916 73.486 225.972 73.486C234.452 73.486 239.063 79.74 239.063 87.69V89.863H220.142C220.725 93.679 223.004 95.852 226.237 95.852C228.887 95.852 230.954 94.58 231.749 92.142L238.851 94.421C236.784 99.774 231.696 102.583 226.131 102.583ZM225.866 80.058C223.269 80.058 221.255 81.595 220.407 84.669H230.689C230.636 82.178 228.993 80.058 225.866 80.058ZM261.954 86.047V102H253.474V74.069H261.954V76.825C263.491 75.076 266.035 73.486 269.586 73.486C272.925 73.486 275.681 74.917 277.271 77.302C278.861 75.553 281.617 73.486 285.91 73.486C291.581 73.486 295.344 77.461 295.344 83.556V102H286.864V85.994C286.864 83.185 285.751 81.118 283.048 81.118C280.822 81.118 278.649 82.761 278.649 86.047V102H270.169V85.994C270.169 83.185 269.109 81.118 266.353 81.118C264.127 81.118 261.954 82.761 261.954 86.047ZM308.626 102.53C303.008 102.53 298.98 99.138 298.98 94.209C298.98 88.432 303.856 86.1 309.739 85.252L315.993 84.192V83.715C315.993 81.648 314.88 80.323 312.124 80.323C309.686 80.323 308.414 81.436 307.884 83.662L299.775 82.443C300.994 77.514 305.393 73.486 312.495 73.486C319.809 73.486 324.314 76.825 324.314 83.344V94.103C324.314 95.534 324.844 95.958 326.487 95.746V102C321.611 102.795 318.325 101.894 316.894 99.509C315.039 101.417 312.283 102.53 308.626 102.53ZM315.993 91.983V89.704L311.117 90.552C308.891 90.976 307.248 91.665 307.248 93.626C307.248 95.375 308.573 96.329 310.587 96.329C313.396 96.329 315.993 94.845 315.993 91.983ZM330.978 94.527V81.065H327.427V74.069H330.978V66.331H339.352V74.069H344.811V81.065H339.352V92.354C339.352 94.686 340.571 95.11 342.691 95.11C343.698 95.11 344.175 95.057 345.129 94.951V101.894C343.645 102.106 342.055 102.265 340.041 102.265C333.999 102.265 330.978 100.251 330.978 94.527ZM350.128 94.527V81.065H346.577V74.069H350.128V66.331H358.502V74.069H363.961V81.065H358.502V92.354C358.502 94.686 359.721 95.11 361.841 95.11C362.848 95.11 363.325 95.057 364.279 94.951V101.894C362.795 102.106 361.205 102.265 359.191 102.265C353.149 102.265 350.128 100.251 350.128 94.527ZM380.783 102.583C372.356 102.583 366.632 96.7 366.632 88.008C366.632 79.74 372.568 73.486 380.624 73.486C389.104 73.486 393.715 79.74 393.715 87.69V89.863H374.794C375.377 93.679 377.656 95.852 380.889 95.852C383.539 95.852 385.606 94.58 386.401 92.142L393.503 94.421C391.436 99.774 386.348 102.583 380.783 102.583ZM380.518 80.058C377.921 80.058 375.907 81.595 375.059 84.669H385.341C385.288 82.178 383.645 80.058 380.518 80.058ZM415.111 74.016V82.178C414.21 82.019 413.574 81.966 412.62 81.966C408.963 81.966 406.048 84.245 406.048 88.273V102H397.568V74.069H406.048V77.726C407.32 75.5 410.023 73.91 413.256 73.91C414.051 73.91 414.581 73.963 415.111 74.016Z" fill="#D63020" style="fill:#D63020;fill:color(display-p3 0.8392 0.1882 0.1255);fill-opacity:1;"/>
<path d="M421.262 77.3231V79H420.667V75H422.364C423.306 75 423.907 75.3955 423.907 76.1588C423.907 76.7994 423.473 77.1894 422.767 77.2953L424 79H423.319L422.123 77.3231H421.262ZM421.262 76.8607H422.333C422.965 76.8607 423.319 76.61 423.319 76.1588C423.319 75.7075 422.965 75.4624 422.333 75.4624H421.262V76.8607Z" fill="#D63020" style="fill:#D63020;fill:color(display-p3 0.8392 0.1882 0.1255);fill-opacity:1;"/>
<path d="M425.368 77C425.368 75.1397 423.86 73.6316 422 73.6316C420.14 73.6316 418.632 75.1397 418.632 77C418.632 78.8603 420.14 80.3684 422 80.3684V81C419.791 81 418 79.2091 418 77C418 74.7909 419.791 73 422 73C424.209 73 426 74.7909 426 77C426 79.2091 424.209 81 422 81V80.3684C423.86 80.3684 425.368 78.8603 425.368 77Z" fill="#D63020" style="fill:#D63020;fill:color(display-p3 0.8392 0.1882 0.1255);fill-opacity:1;"/>
</g>
<defs>
<clipPath id="clip0_257_2">
<rect width="473" height="165" fill="white" style="fill:white;fill-opacity:1;"/>
</clipPath>
</defs>
</svg>
