<svg width="336" height="176" viewBox="0 0 336 176" fill="none" xmlns="http://www.w3.org/2000/svg">
<g clip-path="url(#clip0_235_154)">
<path d="M315.158 21.9163C319.376 25.7923 325.076 20.4343 330.092 24.3103C336.248 28.9843 331.688 39.2443 327.242 42.2083C320.516 46.7683 313.562 43.6903 309.116 37.0783C305.24 31.2643 296.576 40.0423 303.758 46.4263C307.064 49.3903 308.888 51.3283 314.816 47.9083C321.428 44.0323 327.242 54.4063 321.656 61.1323C314.018 70.2523 307.52 58.5103 300.794 62.0443C295.778 64.5523 297.716 72.7603 303.758 73.1023C313.106 73.7863 315.5 69.9103 317.666 68.0863C329.18 58.7383 337.274 73.9003 328.724 81.5383C320.174 89.0623 314.588 80.2843 310.256 82.3363C299.54 87.3523 294.524 91.0003 290.306 86.5543C282.782 78.6883 292.586 73.7863 289.622 65.4643C287.342 59.3083 278.222 55.7743 285.746 46.1983C292.928 36.9643 287.228 36.8503 288.824 25.7923C290.192 16.2163 307.52 14.8483 315.158 21.9163Z" fill="#B9FFA9"/>
<path d="M279.826 28.8704C274.924 35.9384 266.944 30.4664 264.778 30.1244C250.414 28.0724 258.85 36.3944 254.404 51.5564C251.212 62.3864 263.41 61.5884 259.876 67.7444C256.912 72.9884 259.876 74.4704 263.524 70.5944C266.032 67.7444 268.882 64.6664 267.4 60.1064C266.488 57.3704 263.524 58.0544 261.358 51.7844C258.85 44.3744 260.902 38.7884 268.312 36.5084C275.836 34.1144 281.194 38.6744 279.028 47.5664C277.546 53.7224 279.37 56.8004 282.22 63.8684C285.412 72.0764 271.286 76.1646 272.5 82.5005C274.286 120.665 260.332 98.0684 251.098 86.8964C245.284 79.7144 252.01 70.5944 245.056 63.7544C237.76 56.4584 239.014 51.6704 242.548 44.2604C246.538 35.3684 240.04 31.0364 243.802 24.5384C250.756 12.6824 257.368 20.5484 266.944 14.0504C278.914 6.07039 284.956 21.4604 279.826 28.8704Z" fill="#B9FFA9"/>
<path d="M217.738 9.37621C217.51 13.2522 212.152 17.2422 210.1 14.7342C208.048 12.2262 205.54 8.35021 211.696 6.18421C217.852 4.13221 217.738 9.37621 217.738 9.37621ZM234.496 46.3122C232.102 52.8102 241.532 65.88 231.5 75C222.608 83.094 212.836 80.7402 213.52 67.2882C214.09 56.2302 205.996 60.6762 207.364 47.3382C207.934 40.8402 207.478 32.1762 200.98 35.4822C197.902 37.0782 197.788 41.5242 199.27 44.0322C203.032 50.3022 205.312 51.7842 206.338 58.1682C207.136 63.5262 205.426 65.5782 205.426 69.3402C205.654 79.1442 210 73 213.52 82.5C215.458 92.076 205.54 96.0162 195.85 91.5702C187.414 87.8082 185.818 77.0922 187.3 67.5162C188.554 59.1942 192.088 54.4062 191.746 49.3902C191.29 41.7522 183.994 33.2022 190.15 21.4602C195.508 11.0862 207.478 14.7342 209.872 20.2062C214.09 29.7822 210.328 32.2902 214.09 37.3062C217.054 41.1822 219.904 40.2702 222.298 44.4882C226.972 52.8102 220.132 58.1682 224.35 61.7022C227.086 63.9822 229.822 61.8162 227.656 57.1422C225.718 52.8102 226.174 49.6182 227.542 45.1722C231.19 33.5442 216.826 37.5342 214.546 24.6522C212.494 13.3662 226.288 9.26221 232.558 16.7862C241.45 27.7302 238.486 35.3682 234.496 46.3122Z" fill="#B9FFA9"/>
<path d="M153.5 74.9995C161.378 81.9995 148.412 84.1597 177.368 89.9737C168.59 94.7617 143.447 91.9372 140.5 88.4995C137.5 84.9995 123.332 81.0817 126.752 66.2617C129.602 54.4057 110.678 54.5197 113.642 46.3117C117.974 34.7977 106.574 42.2077 108.056 48.5917C110.45 59.5357 121.622 61.0177 119.228 65.9197C113.984 76.4077 131.5 78.9995 130 86.4995C129 90.9995 85.0276 98.8657 93.2356 75.7237C97.2256 64.2097 101.672 62.6137 95.0596 46.8817C91.2976 37.7617 98.3656 37.3057 95.5156 26.5897C91.8676 12.7957 100.988 8.34974 109.766 15.1897C112.388 17.3557 115.58 15.5317 119 14.1637C137.24 6.75374 147.272 20.5477 145.334 33.5437C144.308 39.9277 141.686 52.8097 122.078 47.5657C120.026 46.9957 119.342 49.7317 124.016 50.5297C129.488 51.5557 139.862 53.6077 138.152 60.2197C134.276 75.2677 148 71.4995 153.5 74.9995ZM118.316 25.5637C112.274 26.9317 113.528 30.8077 116.378 30.9217C124.928 31.4917 120.596 36.2797 125.612 37.3057C129.146 38.1037 128.348 31.7197 127.778 29.8957C126.98 26.9317 124.814 24.0817 118.316 25.5637ZM143.51 57.0277C146.018 43.4617 152.858 43.2337 150.122 34.3417C147.728 26.4757 147.386 18.9517 152.858 13.7077C158.216 8.46374 173.948 8.34974 176.114 25.4497C177.026 32.8597 180.56 31.6057 184.094 44.9437C186.602 54.7477 182.384 66.7177 172.238 66.9457C160.61 67.0597 160.04 54.5197 166.88 51.7837C172.922 49.3897 172.922 36.6217 168.476 37.9897C165.398 39.0157 168.02 46.7677 164.03 49.3897C159.926 52.0117 159.128 55.7737 160.154 59.9917C161.636 65.4637 161.864 72.7597 151.604 71.5057C146.246 70.8217 142.142 64.3237 143.51 57.0277ZM163.688 27.3877C160.952 21.4597 155.936 23.2837 159.014 28.8697C160.154 30.9217 158.102 33.4297 160.382 34.6837C163.802 36.3937 165.398 31.1497 163.688 27.3877Z" fill="#B9FFA9"/>
<path d="M66.198 10.6301C62.55 9.3761 63.006 4.81609 67.224 4.24609C71.328 3.5621 77.256 3.1061 74.292 7.6661C71.214 12.2261 66.198 10.6301 66.198 10.6301ZM79.08 11.6561C90.708 7.3241 92.76 19.7501 91.62 24.6521C90.594 29.2121 88.086 32.8601 83.184 31.3781C79.65 30.3521 75.318 33.3161 76.23 38.2181C78.168 49.2761 69.96 54.0641 75.318 64.0961C80.562 74.1281 81.4604 78.028 86.0204 83.5C97.9999 92 55.4999 107 62.436 89C68.2161 74 56.508 66.0341 59.13 52.9241C60.384 46.8821 66.996 45.6281 64.602 37.0781C61.866 27.1601 59.472 29.6681 54 26.5901C47.274 22.7141 48.414 15.7601 54.228 13.7081C64.488 10.0601 63.006 17.5841 79.08 11.6561ZM62.436 39.5861C62.208 43.3481 57.99 43.9181 56.394 40.1561C54.798 36.2801 52.974 30.8081 57.876 32.6321C62.664 34.4561 62.436 39.5861 62.436 39.5861Z" fill="#B9FFA9"/>
<path d="M46.6924 28.4139C42.9304 36.0519 54.2164 37.5339 46.8064 43.2339C36.0904 51.5559 23.8924 41.4099 28.7944 33.3159C31.3024 29.0979 24.8044 22.4859 19.4464 27.1599C16.1404 30.2379 24.8044 31.9479 21.3844 38.2179C17.9644 44.4879 28.3384 49.1619 33.8104 48.3639C44.7544 46.6539 50.9104 53.8359 46.2364 62.0439C40.5364 71.9619 51.4804 74.3559 38.8264 87.0099C22.8664 102.856 4.05642 87.1239 6.56442 79.3719C10.4404 67.9719 1.89042 70.8219 2.68842 63.6399C4.62642 45.1719 28.2244 50.6439 23.8924 66.1479C19.2184 83.2479 40.5364 80.7399 28.7944 67.2879C23.5504 61.2459 36.4324 53.3799 27.5404 52.3539C19.9024 51.4419 15.5704 51.3279 10.5544 45.7419C6.90642 41.7519 2.91642 31.6059 6.45042 24.1959C9.87042 17.0139 14.3164 20.7759 20.8144 13.8219C28.5664 5.27188 52.2784 16.8999 46.6924 28.4139Z" fill="#B9FFA9"/>
<path d="M329.082 159.676C329.22 159.814 329.404 160.044 329.588 160.412L330.048 161.102H329.312L328.99 160.55C328.76 160.09 328.53 159.814 328.392 159.676C328.254 159.63 328.116 159.584 327.932 159.584H327.564V161.102H326.966V157.468H328.208C328.668 157.468 328.99 157.514 329.174 157.56C329.358 157.606 329.496 157.744 329.634 157.928C329.726 158.066 329.818 158.25 329.818 158.434C329.818 158.71 329.68 158.94 329.496 159.17C329.312 159.354 329.082 159.446 328.76 159.492C328.898 159.538 328.99 159.584 329.082 159.676ZM327.564 159.078H328.3C328.622 159.078 328.852 159.032 328.99 158.894C329.128 158.802 329.174 158.664 329.174 158.48C329.174 158.388 329.128 158.296 329.082 158.204C329.036 158.112 328.944 158.066 328.806 158.02C328.714 157.974 328.53 157.974 328.254 157.974H327.564V159.078ZM331.428 157.514C331.704 158.066 331.888 158.664 331.888 159.262C331.888 159.814 331.704 160.412 331.428 160.918C331.106 161.47 330.692 161.884 330.14 162.206C329.634 162.482 329.036 162.62 328.484 162.62C327.886 162.62 327.288 162.482 326.782 162.206C326.23 161.884 325.816 161.47 325.494 160.918C325.218 160.412 325.08 159.814 325.08 159.262C325.08 158.664 325.218 158.066 325.494 157.514C325.816 157.008 326.23 156.548 326.782 156.272C327.334 155.996 327.886 155.812 328.484 155.812C329.036 155.812 329.588 155.996 330.14 156.272C330.692 156.548 331.106 157.008 331.428 157.514ZM330.922 160.642C331.198 160.182 331.29 159.722 331.29 159.262C331.29 158.756 331.198 158.25 330.922 157.836C330.646 157.376 330.324 157.008 329.864 156.778C329.404 156.502 328.944 156.41 328.484 156.41C327.978 156.41 327.518 156.502 327.058 156.778C326.598 157.008 326.276 157.376 326 157.836C325.77 158.25 325.632 158.756 325.632 159.262C325.632 159.722 325.77 160.182 326 160.642C326.23 161.102 326.598 161.47 327.058 161.7C327.518 161.976 327.978 162.068 328.484 162.068C328.944 162.068 329.404 161.976 329.864 161.7C330.324 161.47 330.692 161.102 330.922 160.642Z" fill="#B9FFA9"/>
<path d="M319.37 120.674C312.82 120.412 306.794 110.325 306.27 115.958C306.008 118.971 320.811 127.617 325.658 131.416C337.055 140.455 324.086 162.987 310.593 156.83C301.423 152.638 302.602 145.433 305.746 137.573C310.855 124.604 293.432 124.735 296.838 115.434C301.816 102.072 285.965 111.897 290.419 118.054C294.742 123.949 297.1 129.451 293.694 134.691C290.419 139.669 295.79 144.385 298.41 147.267C320.942 172.812 272.472 179.624 276.664 148.577C278.498 134.691 283.083 134.167 275.616 116.089C271.162 105.609 279.284 104.954 276.009 92.7714C271.817 76.9204 282.428 71.8114 292.384 79.6714C295.397 82.1604 299.065 80.0644 302.995 78.3614C322.907 69.9774 334.697 87.4004 332.47 102.334C331.422 109.408 329.064 121.198 319.37 120.674ZM299.982 97.7494C309.807 98.2734 304.829 103.906 310.593 105.085C314.654 105.871 313.737 98.6664 313.082 96.5704C312.165 93.1644 309.676 89.8894 302.209 91.5924C295.266 93.0334 296.707 97.4874 299.982 97.7494ZM320.025 160.236C325.396 161.415 321.073 169.799 321.073 169.799C319.763 172.943 309.414 172.288 308.628 169.275C307.842 166.131 314.785 158.926 320.025 160.236Z" fill="#B9FFA9"/>
<path d="M243.882 159.974C246.24 157.878 255.803 161.415 255.41 164.035C255.148 166.655 246.109 170.323 241.524 167.834C236.939 165.214 243.882 159.974 243.882 159.974ZM256.589 84.6491C251.087 82.9461 245.847 81.7671 249.908 76.5271C253.576 71.6801 261.305 79.4091 261.305 79.4091C265.235 82.5531 262.091 86.3521 256.589 84.6491ZM254.362 139.669C267.593 128.927 276.894 146.35 267.069 155.127C257.244 163.773 250.825 153.817 245.847 156.175C233.533 161.808 227.769 166 222.922 160.891C214.276 151.983 225.542 146.219 222.136 136.656C219.516 129.713 209.036 125.521 217.682 114.517C225.935 104.037 219.385 103.775 221.219 91.0681C222.791 80.1951 242.703 78.4921 251.48 86.6141C256.327 91.0681 262.877 84.9111 268.641 89.3651C275.715 94.7361 270.475 106.526 265.366 109.932C257.637 115.172 249.646 111.635 244.537 104.037C240.083 97.4871 230.127 107.443 238.38 114.779C242.179 118.316 244.275 120.412 251.087 116.482C258.685 112.028 265.366 123.949 258.947 131.678C250.17 142.158 242.703 128.796 234.974 132.726C229.21 135.608 231.437 145.04 238.38 145.433C249.122 146.219 251.873 141.765 254.362 139.669ZM236.153 133.905C237.463 132.071 242.179 135.215 242.048 137.573C241.917 139.931 237.332 143.075 234.974 140.848C232.747 138.621 236.153 133.905 236.153 133.905Z" fill="#B9FFA9"/>
<path d="M200.118 77.575C212.563 70.632 215.838 86.876 214.659 92.509C213.349 97.749 210.467 101.941 204.834 100.238C200.773 99.059 195.795 102.465 196.843 108.098C199.07 120.805 189.769 126.307 195.795 137.835C201.821 149.363 202.476 151.721 202.083 161.546C201.428 176.873 166.713 173.467 175.359 155.258C184.267 136.525 174.311 140.062 177.324 124.997C178.634 118.054 186.232 116.613 183.481 106.788C180.337 95.391 177.717 98.273 171.298 94.736C171.167 94.605 171.036 94.605 170.905 94.474C168.416 95.915 167.892 98.797 169.071 101.155C177.586 120.281 158.198 125.521 164.224 136.918C170.25 148.446 170.905 150.935 170.512 160.629C169.988 176.087 135.142 172.681 143.919 154.341C152.827 135.739 142.74 139.145 145.753 124.211C147.194 117.268 154.792 115.827 152.041 105.871C148.897 94.605 152.041 97.749 146.015 93.557C129.378 81.767 140.644 67.226 156.757 76.396C163.962 80.588 168.154 80.588 173.132 79.409C186.756 74.693 185.446 85.697 200.118 77.575Z" fill="#B9FFA9"/>
<path d="M100.859 143.468C91.0341 137.18 100.859 129.844 96.2741 119.102C91.2961 107.574 100.466 103.775 101.514 95.2603C104.003 75.6103 122.081 75.7413 128.238 81.7673C134.526 87.7933 134.133 96.4393 131.513 105.478C128.369 115.827 134.919 113.469 137.801 129.058C139.373 137.442 132.954 146.219 127.19 145.171C118.675 143.599 118.675 139.8 119.854 133.381C120.509 129.451 120.116 125.783 115.531 122.77C110.946 119.757 113.828 110.849 110.291 109.67C105.182 108.098 105.182 122.77 112.125 125.521C120.116 128.665 112.256 150.935 100.859 143.468ZM115.924 97.4873C113.828 101.81 115.793 107.836 119.592 105.871C122.343 104.43 119.985 101.548 121.295 99.1903C124.701 92.7713 119.068 90.6753 115.924 97.4873ZM126.666 150.149C141.731 145.171 144.875 164.297 127.845 168.751C110.422 173.336 78.7201 170.847 76.4931 147.791C75.5761 137.966 84.4841 131.547 79.1131 121.591C75.0521 114.124 81.9951 108.884 76.1001 104.299C71.9081 100.893 61.8211 111.373 67.3231 118.578C76.8861 131.154 76.1001 142.158 70.7291 147.66C63.5241 154.996 53.1751 149.625 55.9261 140.324C57.7601 134.56 63.3931 133.774 57.1051 124.604C52.6511 118.054 59.3321 110.194 51.9961 110.98C46.6251 111.504 46.4941 116.875 50.5551 122.639C57.4981 132.464 53.5681 134.036 50.2931 140.848C46.1011 149.756 57.6291 147.267 51.8651 159.712C45.8391 172.812 27.3681 166 28.5471 153.293C29.3331 143.992 37.5861 141.896 32.7391 131.154C24.8791 113.469 40.2061 113.731 34.4421 102.989C25.4031 86.2213 30.7741 80.4573 39.6821 75.4793C49.9001 69.9773 63.3931 77.0513 57.2361 84.7803C55.5331 87.0073 49.1141 97.2253 55.2711 99.7143C63.7861 102.989 56.4501 89.1033 69.1571 82.8153C72.0391 81.2433 80.9471 79.9333 86.0561 83.6013C95.2261 90.2823 93.9161 101.024 91.9511 106.919C87.1041 121.591 93.6541 121.984 92.7371 131.154C92.6061 132.857 92.0821 134.298 91.5581 135.608C85.5321 150.018 112.256 154.996 126.666 150.149Z" fill="#B9FFA9"/>
</g>
<defs>
<clipPath id="clip0_235_154">
<rect width="336" height="176" fill="white"/>
</clipPath>
</defs>
</svg>
