<svg width="473" height="473" viewBox="0 0 473 473" fill="none" xmlns="http://www.w3.org/2000/svg">
<path d="M379.158 166.916C383.376 170.792 389.076 165.434 394.092 169.31C400.248 173.984 395.688 184.244 391.242 187.208C384.516 191.768 377.562 188.69 373.116 182.078C369.24 176.264 360.576 185.042 367.758 191.426C371.064 194.39 372.888 196.328 378.816 192.908C385.428 189.032 391.242 199.406 385.656 206.132C378.018 215.252 371.52 203.51 364.794 207.044C359.778 209.552 361.716 217.76 367.758 218.102C377.106 218.786 379.5 214.91 381.666 213.086C393.18 203.738 401.274 218.9 392.724 226.538C384.174 234.062 378.588 225.284 374.256 227.336C363.54 232.352 358.524 236 354.306 231.554C346.782 223.688 356.586 218.786 353.622 210.464C351.342 204.308 342.222 200.774 349.746 191.198C356.928 181.964 351.228 181.85 352.824 170.792C354.192 161.216 371.52 159.848 379.158 166.916Z" fill="#B9FFA9"/>
<path d="M343.826 173.87C338.924 180.938 330.944 175.466 328.778 175.124C314.414 173.072 322.85 181.394 318.404 196.556C315.212 207.386 327.41 206.588 323.876 212.744C320.912 217.988 323.876 219.47 327.524 215.594C330.032 212.744 332.882 209.666 331.4 205.106C330.488 202.37 327.524 203.054 325.358 196.784C322.85 189.374 324.902 183.788 332.312 181.508C339.836 179.114 345.194 183.674 343.028 192.566C341.546 198.722 343.37 201.8 346.22 208.868C349.412 217.076 335.286 221.165 336.5 227.5C338.286 265.665 324.332 243.068 315.098 231.896C309.284 224.714 316.01 215.594 309.056 208.754C301.76 201.458 303.014 196.67 306.548 189.26C310.538 180.368 304.04 176.036 307.802 169.538C314.756 157.682 321.368 165.548 330.944 159.05C342.914 151.07 348.956 166.46 343.826 173.87Z" fill="#B9FFA9"/>
<path d="M281.738 154.376C281.51 158.252 276.152 162.242 274.1 159.734C272.048 157.226 269.54 153.35 275.696 151.184C281.852 149.132 281.738 154.376 281.738 154.376ZM298.496 191.312C296.102 197.81 305.532 210.88 295.5 220C286.608 228.094 276.836 225.74 277.52 212.288C278.09 201.23 269.996 205.676 271.364 192.338C271.934 185.84 271.478 177.176 264.98 180.482C261.902 182.078 261.788 186.524 263.27 189.032C267.032 195.302 269.312 196.784 270.338 203.168C271.136 208.526 269.426 210.578 269.426 214.34C269.654 224.144 274 218 277.52 227.5C279.458 237.076 269.54 241.016 259.85 236.57C251.414 232.808 249.818 222.092 251.3 212.516C252.554 204.194 256.088 199.406 255.746 194.39C255.29 186.752 247.994 178.202 254.15 166.46C259.508 156.086 271.478 159.734 273.872 165.206C278.09 174.782 274.328 177.29 278.09 182.306C281.054 186.182 283.904 185.27 286.298 189.488C290.972 197.81 284.132 203.168 288.35 206.702C291.086 208.982 293.822 206.816 291.656 202.142C289.718 197.81 290.174 194.618 291.542 190.172C295.19 178.544 280.826 182.534 278.546 169.652C276.494 158.366 290.288 154.262 296.558 161.786C305.45 172.73 302.486 180.368 298.496 191.312Z" fill="#B9FFA9"/>
<path d="M217.5 220C225.378 227 212.412 229.16 241.368 234.974C232.59 239.762 207.447 236.937 204.5 233.5C201.5 230 187.332 226.082 190.752 211.262C193.602 199.406 174.678 199.52 177.642 191.312C181.974 179.798 170.574 187.208 172.056 193.592C174.45 204.536 185.622 206.018 183.228 210.92C177.984 221.408 195.5 224 194 231.5C193 236 149.028 243.866 157.236 220.724C161.226 209.21 165.672 207.614 159.06 191.882C155.298 182.762 162.366 182.306 159.516 171.59C155.868 157.796 164.988 153.35 173.766 160.19C176.388 162.356 179.58 160.532 183 159.164C201.24 151.754 211.272 165.548 209.334 178.544C208.308 184.928 205.686 197.81 186.078 192.566C184.026 191.996 183.342 194.732 188.016 195.53C193.488 196.556 203.862 198.608 202.152 205.22C198.276 220.268 212 216.5 217.5 220ZM182.316 170.564C176.274 171.932 177.528 175.808 180.378 175.922C188.928 176.492 184.596 181.28 189.612 182.306C193.146 183.104 192.348 176.72 191.778 174.896C190.98 171.932 188.814 169.082 182.316 170.564ZM207.51 202.028C210.018 188.462 216.858 188.234 214.122 179.342C211.728 171.476 211.386 163.952 216.858 158.708C222.216 153.464 237.948 153.35 240.114 170.45C241.026 177.86 244.56 176.606 248.094 189.944C250.602 199.748 246.384 211.718 236.238 211.946C224.61 212.06 224.04 199.52 230.88 196.784C236.922 194.39 236.922 181.622 232.476 182.99C229.398 184.016 232.02 191.768 228.03 194.39C223.926 197.012 223.128 200.774 224.154 204.992C225.636 210.464 225.864 217.76 215.604 216.506C210.246 215.822 206.142 209.324 207.51 202.028ZM227.688 172.388C224.952 166.46 219.936 168.284 223.014 173.87C224.154 175.922 222.102 178.43 224.382 179.684C227.802 181.394 229.398 176.15 227.688 172.388Z" fill="#B9FFA9"/>
<path d="M130.198 155.63C126.55 154.376 127.006 149.816 131.224 149.246C135.328 148.562 141.256 148.106 138.292 152.666C135.214 157.226 130.198 155.63 130.198 155.63ZM143.08 156.656C154.708 152.324 156.76 164.75 155.62 169.652C154.594 174.212 152.086 177.86 147.184 176.378C143.65 175.352 139.318 178.316 140.23 183.218C142.168 194.276 133.96 199.064 139.318 209.096C144.562 219.128 145.46 223.028 150.02 228.5C162 237 119.5 252 126.436 234C132.216 219 120.508 211.034 123.13 197.924C124.384 191.882 130.996 190.628 128.602 182.078C125.866 172.16 123.472 174.668 118 171.59C111.274 167.714 112.414 160.76 118.228 158.708C128.488 155.06 127.006 162.584 143.08 156.656ZM126.436 184.586C126.208 188.348 121.99 188.918 120.394 185.156C118.798 181.28 116.974 175.808 121.876 177.632C126.664 179.456 126.436 184.586 126.436 184.586Z" fill="#B9FFA9"/>
<path d="M110.692 173.414C106.93 181.052 118.216 182.534 110.806 188.234C100.09 196.556 87.8924 186.41 92.7944 178.316C95.3024 174.098 88.8044 167.486 83.4464 172.16C80.1404 175.238 88.8044 176.948 85.3844 183.218C81.9644 189.488 92.3384 194.162 97.8104 193.364C108.754 191.654 114.91 198.836 110.236 207.044C104.536 216.962 115.48 219.356 102.826 232.01C86.8664 247.856 68.0564 232.124 70.5644 224.372C74.4404 212.972 65.8904 215.822 66.6884 208.64C68.6264 190.172 92.2244 195.644 87.8924 211.148C83.2184 228.248 104.536 225.74 92.7944 212.288C87.5504 206.246 100.432 198.38 91.5404 197.354C83.9024 196.442 79.5704 196.328 74.5544 190.742C70.9064 186.752 66.9164 176.606 70.4504 169.196C73.8704 162.014 78.3164 165.776 84.8144 158.822C92.5664 150.272 116.278 161.9 110.692 173.414Z" fill="#B9FFA9"/>
<path d="M393.082 304.676C393.22 304.814 393.404 305.044 393.588 305.412L394.048 306.102H393.312L392.99 305.55C392.76 305.09 392.53 304.814 392.392 304.676C392.254 304.63 392.116 304.584 391.932 304.584H391.564V306.102H390.966V302.468H392.208C392.668 302.468 392.99 302.514 393.174 302.56C393.358 302.606 393.496 302.744 393.634 302.928C393.726 303.066 393.818 303.25 393.818 303.434C393.818 303.71 393.68 303.94 393.496 304.17C393.312 304.354 393.082 304.446 392.76 304.492C392.898 304.538 392.99 304.584 393.082 304.676ZM391.564 304.078H392.3C392.622 304.078 392.852 304.032 392.99 303.894C393.128 303.802 393.174 303.664 393.174 303.48C393.174 303.388 393.128 303.296 393.082 303.204C393.036 303.112 392.944 303.066 392.806 303.02C392.714 302.974 392.53 302.974 392.254 302.974H391.564V304.078ZM395.428 302.514C395.704 303.066 395.888 303.664 395.888 304.262C395.888 304.814 395.704 305.412 395.428 305.918C395.106 306.47 394.692 306.884 394.14 307.206C393.634 307.482 393.036 307.62 392.484 307.62C391.886 307.62 391.288 307.482 390.782 307.206C390.23 306.884 389.816 306.47 389.494 305.918C389.218 305.412 389.08 304.814 389.08 304.262C389.08 303.664 389.218 303.066 389.494 302.514C389.816 302.008 390.23 301.548 390.782 301.272C391.334 300.996 391.886 300.812 392.484 300.812C393.036 300.812 393.588 300.996 394.14 301.272C394.692 301.548 395.106 302.008 395.428 302.514ZM394.922 305.642C395.198 305.182 395.29 304.722 395.29 304.262C395.29 303.756 395.198 303.25 394.922 302.836C394.646 302.376 394.324 302.008 393.864 301.778C393.404 301.502 392.944 301.41 392.484 301.41C391.978 301.41 391.518 301.502 391.058 301.778C390.598 302.008 390.276 302.376 390 302.836C389.77 303.25 389.632 303.756 389.632 304.262C389.632 304.722 389.77 305.182 390 305.642C390.23 306.102 390.598 306.47 391.058 306.7C391.518 306.976 391.978 307.068 392.484 307.068C392.944 307.068 393.404 306.976 393.864 306.7C394.324 306.47 394.692 306.102 394.922 305.642Z" fill="#B9FFA9"/>
<path d="M383.37 265.674C376.82 265.412 370.794 255.325 370.27 260.958C370.008 263.971 384.811 272.617 389.658 276.416C401.055 285.455 388.086 307.987 374.593 301.83C365.423 297.638 366.602 290.433 369.746 282.573C374.855 269.604 357.432 269.735 360.838 260.434C365.816 247.072 349.965 256.897 354.419 263.054C358.742 268.949 361.1 274.451 357.694 279.691C354.419 284.669 359.79 289.385 362.41 292.267C384.942 317.812 336.472 324.624 340.664 293.577C342.498 279.691 347.083 279.167 339.616 261.089C335.162 250.609 343.284 249.954 340.009 237.771C335.817 221.92 346.428 216.811 356.384 224.671C359.397 227.16 363.065 225.064 366.995 223.361C386.907 214.977 398.697 232.4 396.47 247.334C395.422 254.408 393.064 266.198 383.37 265.674ZM363.982 242.749C373.807 243.273 368.829 248.906 374.593 250.085C378.654 250.871 377.737 243.666 377.082 241.57C376.165 238.164 373.676 234.889 366.209 236.592C359.266 238.033 360.707 242.487 363.982 242.749ZM384.025 305.236C389.396 306.415 385.073 314.799 385.073 314.799C383.763 317.943 373.414 317.288 372.628 314.275C371.842 311.131 378.785 303.926 384.025 305.236Z" fill="#B9FFA9"/>
<path d="M307.882 304.974C310.24 302.878 319.803 306.415 319.41 309.035C319.148 311.655 310.109 315.323 305.524 312.834C300.939 310.214 307.882 304.974 307.882 304.974ZM320.589 229.649C315.087 227.946 309.847 226.767 313.908 221.527C317.576 216.68 325.305 224.409 325.305 224.409C329.235 227.553 326.091 231.352 320.589 229.649ZM318.362 284.669C331.593 273.927 340.894 291.35 331.069 300.127C321.244 308.773 314.825 298.817 309.847 301.175C297.533 306.808 291.769 311 286.922 305.891C278.276 296.983 289.542 291.219 286.136 281.656C283.516 274.713 273.036 270.521 281.682 259.517C289.935 249.037 283.385 248.775 285.219 236.068C286.791 225.195 306.703 223.492 315.48 231.614C320.327 236.068 326.877 229.911 332.641 234.365C339.715 239.736 334.475 251.526 329.366 254.932C321.637 260.172 313.646 256.635 308.537 249.037C304.083 242.487 294.127 252.443 302.38 259.779C306.179 263.316 308.275 265.412 315.087 261.482C322.685 257.028 329.366 268.949 322.947 276.678C314.17 287.158 306.703 273.796 298.974 277.726C293.21 280.608 295.437 290.04 302.38 290.433C313.122 291.219 315.873 286.765 318.362 284.669ZM300.153 278.905C301.463 277.071 306.179 280.215 306.048 282.573C305.917 284.931 301.332 288.075 298.974 285.848C296.747 283.621 300.153 278.905 300.153 278.905Z" fill="#B9FFA9"/>
<path d="M264.118 222.575C276.563 215.632 279.838 231.876 278.659 237.509C277.349 242.749 274.467 246.941 268.834 245.238C264.773 244.059 259.795 247.465 260.843 253.098C263.07 265.805 253.769 271.307 259.795 282.835C265.821 294.363 266.476 296.721 266.083 306.546C265.428 321.873 230.713 318.467 239.359 300.258C248.267 281.525 238.311 285.062 241.324 269.997C242.634 263.054 250.232 261.613 247.481 251.788C244.337 240.391 241.717 243.273 235.298 239.736C235.167 239.605 235.036 239.605 234.905 239.474C232.416 240.915 231.892 243.797 233.071 246.155C241.586 265.281 222.198 270.521 228.224 281.918C234.25 293.446 234.905 295.935 234.512 305.629C233.988 321.087 199.142 317.681 207.919 299.341C216.827 280.739 206.74 284.145 209.753 269.211C211.194 262.268 218.792 260.827 216.041 250.871C212.897 239.605 216.041 242.749 210.015 238.557C193.378 226.767 204.644 212.226 220.757 221.396C227.962 225.588 232.154 225.588 237.132 224.409C250.756 219.693 249.446 230.697 264.118 222.575Z" fill="#B9FFA9"/>
<path d="M164.859 288.468C155.034 282.18 164.859 274.844 160.274 264.102C155.296 252.574 164.466 248.775 165.514 240.26C168.003 220.61 186.081 220.741 192.238 226.767C198.526 232.793 198.133 241.439 195.513 250.478C192.369 260.827 198.919 258.469 201.801 274.058C203.373 282.442 196.954 291.219 191.19 290.171C182.675 288.599 182.675 284.8 183.854 278.381C184.509 274.451 184.116 270.783 179.531 267.77C174.946 264.757 177.828 255.849 174.291 254.67C169.182 253.098 169.182 267.77 176.125 270.521C184.116 273.665 176.256 295.935 164.859 288.468ZM179.924 242.487C177.828 246.81 179.793 252.836 183.592 250.871C186.343 249.43 183.985 246.548 185.295 244.19C188.701 237.771 183.068 235.675 179.924 242.487ZM190.666 295.149C205.731 290.171 208.875 309.297 191.845 313.751C174.422 318.336 142.72 315.847 140.493 292.791C139.576 282.966 148.484 276.547 143.113 266.591C139.052 259.124 145.995 253.884 140.1 249.299C135.908 245.893 125.821 256.373 131.323 263.578C140.886 276.154 140.1 287.158 134.729 292.66C127.524 299.996 117.175 294.625 119.926 285.324C121.76 279.56 127.393 278.774 121.105 269.604C116.651 263.054 123.332 255.194 115.996 255.98C110.625 256.504 110.494 261.875 114.555 267.639C121.498 277.464 117.568 279.036 114.293 285.848C110.101 294.756 121.629 292.267 115.865 304.712C109.839 317.812 91.3682 311 92.5472 298.293C93.3332 288.992 101.586 286.896 96.7392 276.154C88.8792 258.469 104.206 258.731 98.4422 247.989C89.4032 231.221 94.7742 225.457 103.682 220.479C113.9 214.977 127.393 222.051 121.236 229.78C119.533 232.007 113.114 242.225 119.271 244.714C127.786 247.989 120.45 234.103 133.157 227.815C136.039 226.243 144.947 224.933 150.056 228.601C159.226 235.282 157.916 246.024 155.951 251.919C151.104 266.591 157.654 266.984 156.737 276.154C156.606 277.857 156.082 279.298 155.558 280.608C149.532 295.018 176.256 299.996 190.666 295.149Z" fill="#B9FFA9"/>
</svg>
