<svg viewBox="0 0 342 58" fill="none" xmlns="http://www.w3.org/2000/svg">
<g filter="url(#filter0_g_33_10)">
<path d="M2.86484 29.4C2.86484 19.2 8.56484 13.38 17.2648 13.38C23.5648 13.38 28.0048 16.44 29.5648 20.7C30.2848 22.68 28.7848 24.12 26.6248 24.12C24.4648 24.12 22.9048 22.74 21.6448 21.6C20.6848 20.76 19.2448 20.1 17.2048 20.1C12.9448 20.1 10.1248 22.8 10.1248 29.4C10.1248 36 13.3648 38.7 17.6248 38.7C19.7848 38.7 21.2248 38.04 22.1248 37.08C23.3248 35.76 24.7048 34.38 26.8648 34.38C29.0248 34.38 30.5848 35.82 29.9248 37.8C28.4248 42.3 23.9848 45.42 17.7448 45.42C8.92484 45.42 2.86484 39.6 2.86484 29.4ZM48.7813 45.42C40.3813 45.42 34.6813 39.6 34.6813 29.4C34.6813 19.2 40.3813 13.38 48.7813 13.38C57.1813 13.38 62.8813 19.2 62.8813 29.4C62.8813 39.6 57.1813 45.42 48.7813 45.42ZM41.9413 29.4C41.9413 36 44.5213 38.7 48.7213 38.7C52.9213 38.7 55.5613 36 55.5613 29.4C55.5613 22.8 52.9213 20.1 48.7213 20.1C44.5213 20.1 41.9413 22.8 41.9413 29.4ZM76.0695 26.76V41.4C76.0695 43.56 74.6295 45 72.4695 45C70.3095 45 68.8695 43.56 68.8695 41.4V18C68.8695 15.48 70.5495 13.8 73.0695 13.8H103.07C105.59 13.8 107.27 15.48 107.27 18V41.4C107.27 43.56 105.83 45 103.67 45C101.51 45 100.07 43.56 100.07 41.4V26.76C100.07 23.04 99.0495 20.52 95.8695 20.52C92.6895 20.52 91.6695 23.04 91.6695 26.76V41.4C91.6695 43.56 90.2295 45 88.0695 45C85.9095 45 84.4695 43.56 84.4695 41.4V26.76C84.4695 23.04 83.4495 20.52 80.2695 20.52C77.0895 20.52 76.0695 23.04 76.0695 26.76ZM119.015 12.18C116.195 12.18 114.455 10.8 114.455 7.38C114.455 3.96 116.195 2.58 119.015 2.58C121.835 2.58 123.635 3.96 123.635 7.38C123.635 10.8 121.835 12.18 119.015 12.18ZM122.675 41.4C122.675 43.56 121.235 45 119.075 45C116.915 45 115.475 43.56 115.475 41.4V17.4C115.475 15.24 116.915 13.8 119.075 13.8C121.235 13.8 122.675 15.24 122.675 17.4V41.4ZM138.062 26.76V41.4C138.062 43.56 136.622 45 134.462 45C132.302 45 130.862 43.56 130.862 41.4V18C130.862 15.48 132.542 13.8 135.062 13.8H153.662C156.182 13.8 157.862 15.48 157.862 18V41.4C157.862 43.56 156.422 45 154.262 45C152.102 45 150.662 43.56 150.662 41.4V26.76C150.662 23.04 148.142 20.52 144.302 20.52C140.582 20.52 138.062 23.04 138.062 26.76ZM181.7 45H177.98C169.58 45 163.88 39.6 163.88 29.4C163.88 19.2 169.58 13.8 177.98 13.8H187.16C189.68 13.8 191.36 15.48 191.36 18V51.6C191.36 54.12 189.68 55.8 187.16 55.8H169.46C167.54 55.8 166.28 54.54 166.28 52.68C166.28 50.76 167.54 49.5 169.46 49.5H181.7C183.32 49.5 184.16 48.6 184.16 47.22C184.16 45.9 183.32 45 181.7 45ZM171.14 29.4C171.14 35.64 173.42 38.34 177.62 38.34C181.82 38.34 184.16 35.64 184.16 29.4C184.16 23.16 181.82 20.46 177.62 20.46C173.42 20.46 171.14 23.16 171.14 29.4ZM220.723 22.8C220.723 24.24 221.683 25.2 223.423 25.2H235.723C238.243 25.2 239.923 26.88 239.923 29.4V40.8C239.923 43.32 238.243 45 235.723 45H216.223C214.243 45 212.923 43.68 212.923 41.7C212.923 39.72 214.243 38.4 216.223 38.4H229.183C231.463 38.4 232.723 37.08 232.723 35.04C232.723 33.06 231.463 31.8 229.183 31.8H217.723C215.203 31.8 213.523 30.12 213.523 27.6V18C213.523 15.48 215.203 13.8 217.723 13.8H235.723C237.703 13.8 239.023 15.12 239.023 17.1C239.023 19.08 237.703 20.4 235.723 20.4H223.423C221.683 20.4 220.723 21.3 220.723 22.8ZM258.84 45.42C250.44 45.42 244.74 39.6 244.74 29.4C244.74 19.2 250.44 13.38 258.84 13.38C267.24 13.38 272.94 19.2 272.94 29.4C272.94 39.6 267.24 45.42 258.84 45.42ZM252 29.4C252 36 254.58 38.7 258.78 38.7C262.98 38.7 265.62 36 265.62 29.4C265.62 22.8 262.98 20.1 258.78 20.1C254.58 20.1 252 22.8 252 29.4ZM291.828 45.42C283.428 45.42 277.728 39.6 277.728 29.4C277.728 19.2 283.428 13.38 291.828 13.38C300.228 13.38 305.928 19.2 305.928 29.4C305.928 39.6 300.228 45.42 291.828 45.42ZM284.988 29.4C284.988 36 287.568 38.7 291.768 38.7C295.968 38.7 298.608 36 298.608 29.4C298.608 22.8 295.968 20.1 291.768 20.1C287.568 20.1 284.988 22.8 284.988 29.4ZM319.116 26.76V41.4C319.116 43.56 317.676 45 315.516 45C313.356 45 311.916 43.56 311.916 41.4V18C311.916 15.48 313.596 13.8 316.116 13.8H334.716C337.236 13.8 338.916 15.48 338.916 18V41.4C338.916 43.56 337.476 45 335.316 45C333.156 45 331.716 43.56 331.716 41.4V26.76C331.716 23.04 329.196 20.52 325.356 20.52C321.636 20.52 319.116 23.04 319.116 26.76Z" fill="#E4E6F3"/>
</g>
<defs>
<filter id="filter0_g_33_10" x="0.764868" y="0.480017" width="340.252" height="57.42" filterUnits="userSpaceOnUse" color-interpolation-filters="sRGB">
<feFlood flood-opacity="0" result="BackgroundImageFix"/>
<feBlend mode="normal" in="SourceGraphic" in2="BackgroundImageFix" result="shape"/>
<feTurbulence type="fractalNoise" baseFrequency="2.5 2.5" numOctaves="3" seed="496" />
<feDisplacementMap in="shape" scale="4.1999998092651367" xChannelSelector="R" yChannelSelector="G" result="displacedImage" width="100%" height="100%" />
<feMerge result="effect1_texture_33_10">
<feMergeNode in="displacedImage"/>
</feMerge>
</filter>
</defs>
</svg>
