<svg width="353" height="60" viewBox="0 0 353 60" fill="none" xmlns="http://www.w3.org/2000/svg">
<g filter="url(#filter0_g_33_10)">
<path d="M2.74367 29.88C2.74367 19.34 8.63367 13.326 17.6237 13.326C24.1337 13.326 28.7217 16.488 30.3337 20.89C31.0777 22.936 29.5277 24.424 27.2957 24.424C25.0637 24.424 23.4517 22.998 22.1497 21.82C21.1577 20.952 19.6697 20.27 17.5617 20.27C13.1597 20.27 10.2457 23.06 10.2457 29.88C10.2457 36.7 13.5937 39.49 17.9957 39.49C20.2277 39.49 21.7157 38.808 22.6457 37.816C23.8857 36.452 25.3117 35.026 27.5437 35.026C29.7757 35.026 31.3877 36.514 30.7057 38.56C29.1557 43.21 24.5677 46.434 18.1197 46.434C9.00567 46.434 2.74367 40.42 2.74367 29.88ZM50.1906 46.434C41.5106 46.434 35.6206 40.42 35.6206 29.88C35.6206 19.34 41.5106 13.326 50.1906 13.326C58.8706 13.326 64.7606 19.34 64.7606 29.88C64.7606 40.42 58.8706 46.434 50.1906 46.434ZM43.1226 29.88C43.1226 36.7 45.7886 39.49 50.1286 39.49C54.4686 39.49 57.1966 36.7 57.1966 29.88C57.1966 23.06 54.4686 20.27 50.1286 20.27C45.7886 20.27 43.1226 23.06 43.1226 29.88ZM78.3885 27.152V42.28C78.3885 44.512 76.9005 46 74.6685 46C72.4365 46 70.9485 44.512 70.9485 42.28V18.1C70.9485 15.496 72.6845 13.76 75.2885 13.76H106.289C108.893 13.76 110.629 15.496 110.629 18.1V42.28C110.629 44.512 109.141 46 106.909 46C104.677 46 103.189 44.512 103.189 42.28V27.152C103.189 23.308 102.135 20.704 98.8485 20.704C95.5625 20.704 94.5085 23.308 94.5085 27.152V42.28C94.5085 44.512 93.0205 46 90.7885 46C88.5565 46 87.0685 44.512 87.0685 42.28V27.152C87.0685 23.308 86.0145 20.704 82.7285 20.704C79.4425 20.704 78.3885 23.308 78.3885 27.152ZM122.766 12.086C119.852 12.086 118.054 10.66 118.054 7.126C118.054 3.592 119.852 2.166 122.766 2.166C125.68 2.166 127.54 3.592 127.54 7.126C127.54 10.66 125.68 12.086 122.766 12.086ZM126.548 42.28C126.548 44.512 125.06 46 122.828 46C120.596 46 119.108 44.512 119.108 42.28V17.48C119.108 15.248 120.596 13.76 122.828 13.76C125.06 13.76 126.548 15.248 126.548 17.48V42.28ZM142.447 27.152V42.28C142.447 44.512 140.959 46 138.727 46C136.495 46 135.007 44.512 135.007 42.28V18.1C135.007 15.496 136.743 13.76 139.347 13.76H158.567C161.171 13.76 162.907 15.496 162.907 18.1V42.28C162.907 44.512 161.419 46 159.187 46C156.955 46 155.467 44.512 155.467 42.28V27.152C155.467 23.308 152.863 20.704 148.895 20.704C145.051 20.704 142.447 23.308 142.447 27.152ZM187.54 46H183.696C175.016 46 169.126 40.42 169.126 29.88C169.126 19.34 175.016 13.76 183.696 13.76H193.182C195.786 13.76 197.522 15.496 197.522 18.1V52.82C197.522 55.424 195.786 57.16 193.182 57.16H174.892C172.908 57.16 171.606 55.858 171.606 53.936C171.606 51.952 172.908 50.65 174.892 50.65H187.54C189.214 50.65 190.082 49.72 190.082 48.294C190.082 46.93 189.214 46 187.54 46ZM176.628 29.88C176.628 36.328 178.984 39.118 183.324 39.118C187.664 39.118 190.082 36.328 190.082 29.88C190.082 23.432 187.664 20.642 183.324 20.642C178.984 20.642 176.628 23.432 176.628 29.88ZM227.864 23.06C227.864 24.548 228.856 25.54 230.654 25.54H243.364C245.968 25.54 247.704 27.276 247.704 29.88V41.66C247.704 44.264 245.968 46 243.364 46H223.214C221.168 46 219.804 44.636 219.804 42.59C219.804 40.544 221.168 39.18 223.214 39.18H236.606C238.962 39.18 240.264 37.816 240.264 35.708C240.264 33.662 238.962 32.36 236.606 32.36H224.764C222.16 32.36 220.424 30.624 220.424 28.02V18.1C220.424 15.496 222.16 13.76 224.764 13.76H243.364C245.41 13.76 246.774 15.124 246.774 17.17C246.774 19.216 245.41 20.58 243.364 20.58H230.654C228.856 20.58 227.864 21.51 227.864 23.06ZM267.251 46.434C258.571 46.434 252.681 40.42 252.681 29.88C252.681 19.34 258.571 13.326 267.251 13.326C275.931 13.326 281.821 19.34 281.821 29.88C281.821 40.42 275.931 46.434 267.251 46.434ZM260.183 29.88C260.183 36.7 262.849 39.49 267.189 39.49C271.529 39.49 274.257 36.7 274.257 29.88C274.257 23.06 271.529 20.27 267.189 20.27C262.849 20.27 260.183 23.06 260.183 29.88ZM301.339 46.434C292.659 46.434 286.769 40.42 286.769 29.88C286.769 19.34 292.659 13.326 301.339 13.326C310.019 13.326 315.909 19.34 315.909 29.88C315.909 40.42 310.019 46.434 301.339 46.434ZM294.271 29.88C294.271 36.7 296.937 39.49 301.277 39.49C305.617 39.49 308.345 36.7 308.345 29.88C308.345 23.06 305.617 20.27 301.277 20.27C296.937 20.27 294.271 23.06 294.271 29.88ZM329.537 27.152V42.28C329.537 44.512 328.049 46 325.817 46C323.585 46 322.097 44.512 322.097 42.28V18.1C322.097 15.496 323.833 13.76 326.437 13.76H345.657C348.261 13.76 349.997 15.496 349.997 18.1V42.28C349.997 44.512 348.509 46 346.277 46C344.045 46 342.557 44.512 342.557 42.28V27.152C342.557 23.308 339.953 20.704 335.985 20.704C332.141 20.704 329.537 23.308 329.537 27.152Z" fill="#360CCC"/>
</g>
<defs>
<filter id="filter0_g_33_10" x="0.643652" y="0.0660005" width="351.453" height="59.194" filterUnits="userSpaceOnUse" color-interpolation-filters="sRGB">
<feFlood flood-opacity="0" result="BackgroundImageFix"/>
<feBlend mode="normal" in="SourceGraphic" in2="BackgroundImageFix" result="shape"/>
<feTurbulence type="fractalNoise" baseFrequency="2.5 2.5" numOctaves="3" seed="496" />
<feDisplacementMap in="shape" scale="4.1999998092651367" xChannelSelector="R" yChannelSelector="G" result="displacedImage" width="100%" height="100%" />
<feMerge result="effect1_texture_33_10">
<feMergeNode in="displacedImage"/>
</feMerge>
</filter>
</defs>
</svg>
