<svg width="348" height="60" viewBox="0 0 348 60" fill="none" xmlns="http://www.w3.org/2000/svg">
<g filter="url(#filter0_g_33_10)">
<path d="M2.66555 24.3C2.66555 10.226 9.05155 2.166 20.2115 2.166C28.7675 2.166 34.0375 6.878 35.7115 13.202C36.2695 15.434 34.7195 16.984 32.4255 16.984C30.0695 16.984 28.4575 15.434 27.4035 13.574C26.0395 11.28 23.5595 9.42 19.9635 9.42C14.1975 9.42 10.5395 13.946 10.5395 24.3C10.5395 34.654 14.9415 39.18 20.7075 39.18C24.6135 39.18 26.9695 37.01 28.2715 34.096C29.1395 32.112 30.6895 30.562 32.9835 30.562H33.0455C35.3395 30.562 36.8895 32.112 36.3315 34.344C34.6576 41.412 29.4495 46.434 20.8935 46.434C9.54755 46.434 2.66555 38.374 2.66555 24.3ZM56.4094 46.434C47.7294 46.434 41.8394 40.42 41.8394 29.88C41.8394 19.34 47.7294 13.326 56.4094 13.326C65.0894 13.326 70.9794 19.34 70.9794 29.88C70.9794 40.42 65.0894 46.434 56.4094 46.434ZM49.3414 29.88C49.3414 36.7 52.0074 39.49 56.3474 39.49C60.6874 39.49 63.4154 36.7 63.4154 29.88C63.4154 23.06 60.6874 20.27 56.3474 20.27C52.0074 20.27 49.3414 23.06 49.3414 29.88ZM84.6073 27.152V42.28C84.6073 44.512 83.1193 46 80.8873 46C78.6553 46 77.1673 44.512 77.1673 42.28V18.1C77.1673 15.496 78.9033 13.76 81.5073 13.76H112.507C115.111 13.76 116.847 15.496 116.847 18.1V42.28C116.847 44.512 115.359 46 113.127 46C110.895 46 109.407 44.512 109.407 42.28V27.152C109.407 23.308 108.353 20.704 105.067 20.704C101.781 20.704 100.727 23.308 100.727 27.152V42.28C100.727 44.512 99.2393 46 97.0073 46C94.7753 46 93.2873 44.512 93.2873 42.28V27.152C93.2873 23.308 92.2333 20.704 88.9473 20.704C85.6613 20.704 84.6073 23.308 84.6073 27.152ZM128.985 12.086C126.071 12.086 124.273 10.66 124.273 7.126C124.273 3.592 126.071 2.166 128.985 2.166C131.899 2.166 133.759 3.592 133.759 7.126C133.759 10.66 131.899 12.086 128.985 12.086ZM132.767 42.28C132.767 44.512 131.279 46 129.047 46C126.815 46 125.327 44.512 125.327 42.28V17.48C125.327 15.248 126.815 13.76 129.047 13.76C131.279 13.76 132.767 15.248 132.767 17.48V42.28ZM148.666 27.152V42.28C148.666 44.512 147.178 46 144.946 46C142.714 46 141.226 44.512 141.226 42.28V18.1C141.226 15.496 142.962 13.76 145.566 13.76H164.786C167.39 13.76 169.126 15.496 169.126 18.1V42.28C169.126 44.512 167.638 46 165.406 46C163.174 46 161.686 44.512 161.686 42.28V27.152C161.686 23.308 159.082 20.704 155.114 20.704C151.27 20.704 148.666 23.308 148.666 27.152ZM193.759 46H189.915C181.235 46 175.345 40.42 175.345 29.88C175.345 19.34 181.235 13.76 189.915 13.76H199.401C202.005 13.76 203.741 15.496 203.741 18.1V52.82C203.741 55.424 202.005 57.16 199.401 57.16H181.111C179.127 57.16 177.825 55.858 177.825 53.936C177.825 51.952 179.127 50.65 181.111 50.65H193.759C195.433 50.65 196.301 49.72 196.301 48.294C196.301 46.93 195.433 46 193.759 46ZM182.847 29.88C182.847 36.328 185.203 39.118 189.543 39.118C193.883 39.118 196.301 36.328 196.301 29.88C196.301 23.432 193.883 20.642 189.543 20.642C185.203 20.642 182.847 23.432 182.847 29.88ZM234.718 32.856C234.718 29.322 232.61 26.904 227.836 26.904H215.188C212.584 26.904 210.848 25.168 210.848 22.564V6.94C210.848 4.336 212.584 2.6 215.188 2.6H237.694C239.802 2.6 241.228 4.026 241.228 6.134C241.228 8.304 239.802 9.73 237.694 9.73H224.612C220.396 9.73 218.598 11.714 218.598 14.814C218.598 17.79 220.396 19.774 224.612 19.774H238.128C240.732 19.774 242.467 21.51 242.467 24.114V41.66C242.467 44.264 240.732 46 238.128 46H213.824C211.654 46 210.228 44.574 210.228 42.404C210.228 40.296 211.654 38.87 213.824 38.87H227.836C232.61 38.87 234.718 36.514 234.718 32.856ZM262.329 46.434C253.649 46.434 247.759 40.42 247.759 29.88C247.759 19.34 253.649 13.326 262.329 13.326C271.009 13.326 276.899 19.34 276.899 29.88C276.899 40.42 271.009 46.434 262.329 46.434ZM255.261 29.88C255.261 36.7 257.927 39.49 262.267 39.49C266.607 39.49 269.335 36.7 269.335 29.88C269.335 23.06 266.607 20.27 262.267 20.27C257.927 20.27 255.261 23.06 255.261 29.88ZM296.417 46.434C287.737 46.434 281.847 40.42 281.847 29.88C281.847 19.34 287.737 13.326 296.417 13.326C305.097 13.326 310.987 19.34 310.987 29.88C310.987 40.42 305.097 46.434 296.417 46.434ZM289.349 29.88C289.349 36.7 292.015 39.49 296.355 39.49C300.695 39.49 303.423 36.7 303.423 29.88C303.423 23.06 300.695 20.27 296.355 20.27C292.015 20.27 289.349 23.06 289.349 29.88ZM324.615 27.152V42.28C324.615 44.512 323.127 46 320.895 46C318.663 46 317.175 44.512 317.175 42.28V18.1C317.175 15.496 318.911 13.76 321.515 13.76H340.735C343.339 13.76 345.075 15.496 345.075 18.1V42.28C345.075 44.512 343.587 46 341.355 46C339.123 46 337.635 44.512 337.635 42.28V27.152C337.635 23.308 335.031 20.704 331.063 20.704C327.219 20.704 324.615 23.308 324.615 27.152Z" fill="#360CCC"/>
</g>
<defs>
<filter id="filter0_g_33_10" x="0.565527" y="0.0659966" width="346.61" height="59.194" filterUnits="userSpaceOnUse" color-interpolation-filters="sRGB">
<feFlood flood-opacity="0" result="BackgroundImageFix"/>
<feBlend mode="normal" in="SourceGraphic" in2="BackgroundImageFix" result="shape"/>
<feTurbulence type="fractalNoise" baseFrequency="2.5 2.5" numOctaves="3" seed="496" />
<feDisplacementMap in="shape" scale="4.1999998092651367" xChannelSelector="R" yChannelSelector="G" result="displacedImage" width="100%" height="100%" />
<feMerge result="effect1_texture_33_10">
<feMergeNode in="displacedImage"/>
</feMerge>
</filter>
</defs>
</svg>
