<svg width="199" height="29" viewBox="0 0 199 29" fill="none" xmlns="http://www.w3.org/2000/svg">
<path d="M7.82973 23.42C6.36973 23.42 5.04973 23.13 3.86973 22.55C2.68973 21.95 1.74973 21.09 1.04973 19.97C0.369727 18.83 0.0297266 17.46 0.0297266 15.86V15.5C0.0297266 13.9 0.379727 12.52 1.07973 11.36C1.77973 10.18 2.71973 9.28 3.89973 8.66C5.07973 8.02 6.38973 7.7 7.82973 7.7C9.90973 7.7 11.5997 8.24 12.8997 9.32C14.1997 10.4 15.0097 11.82 15.3297 13.58L11.6097 14.54C11.4897 13.66 11.1097 12.9 10.4697 12.26C9.82973 11.62 8.92973 11.3 7.76973 11.3C6.68973 11.3 5.75973 11.68 4.97973 12.44C4.19973 13.2 3.80973 14.25 3.80973 15.59V15.77C3.80973 17.11 4.19973 18.12 4.97973 18.8C5.75973 19.48 6.68973 19.82 7.76973 19.82C8.92973 19.82 9.80973 19.53 10.4097 18.95C11.0297 18.37 11.4297 17.59 11.6097 16.61L15.3297 17.54C15.0097 19.3 14.2097 20.72 12.9297 21.8C11.6497 22.88 9.94973 23.42 7.82973 23.42ZM26.0189 23.42C24.6589 23.42 23.3889 23.12 22.2089 22.52C21.0289 21.92 20.0789 21.05 19.3589 19.91C18.6389 18.77 18.2789 17.38 18.2789 15.74V15.38C18.2789 13.76 18.6389 12.38 19.3589 11.24C20.0789 10.08 21.0289 9.2 22.2089 8.6C23.3889 8 24.6589 7.7 26.0189 7.7C27.3789 7.7 28.6489 8 29.8289 8.6C31.0089 9.2 31.9589 10.08 32.6789 11.24C33.3989 12.38 33.7589 13.76 33.7589 15.38V15.74C33.7589 17.38 33.3989 18.77 32.6789 19.91C31.9589 21.05 31.0089 21.92 29.8289 22.52C28.6489 23.12 27.3789 23.42 26.0189 23.42ZM26.0189 19.82C27.1189 19.82 28.0489 19.47 28.8089 18.77C29.5889 18.05 29.9789 17.08 29.9789 15.86V15.26C29.9789 14.02 29.5889 13.05 28.8089 12.35C28.0489 11.65 27.1189 11.3 26.0189 11.3C24.9189 11.3 23.9789 11.65 23.1989 12.35C22.4389 13.05 22.0589 14.02 22.0589 15.26V15.86C22.0589 17.08 22.4389 18.05 23.1989 18.77C23.9789 19.47 24.9189 19.82 26.0189 19.82ZM36.288 23V8.12H40.068V9.56H40.608C40.728 9.02 41.008 8.58 41.448 8.24C41.888 7.88 42.448 7.7 43.128 7.7C43.788 7.7 44.348 7.88 44.808 8.24C45.288 8.58 45.598 9.02 45.738 9.56H46.278C46.438 9.02 46.778 8.58 47.298 8.24C47.818 7.88 48.448 7.7 49.188 7.7C50.188 7.7 50.988 8.04 51.588 8.72C52.188 9.38 52.488 10.3 52.488 11.48V23H48.708V12.56C48.708 12.14 48.598 11.83 48.378 11.63C48.178 11.41 47.908 11.3 47.568 11.3C47.188 11.3 46.878 11.42 46.638 11.66C46.398 11.9 46.278 12.26 46.278 12.74V23H42.498V12.56C42.498 12.14 42.378 11.83 42.138 11.63C41.918 11.41 41.648 11.3 41.328 11.3C40.968 11.3 40.668 11.42 40.428 11.66C40.188 11.9 40.068 12.26 40.068 12.74V23H36.288ZM63.0871 6.56C62.3071 6.56 61.6371 6.29 61.0771 5.75C60.5171 5.19 60.2371 4.51 60.2371 3.71C60.2371 2.91 60.5171 2.24 61.0771 1.7C61.6371 1.14 62.3071 0.859999 63.0871 0.859999C63.8671 0.859999 64.5371 1.14 65.0971 1.7C65.6571 2.24 65.9371 2.91 65.9371 3.71C65.9371 4.51 65.6571 5.19 65.0971 5.75C64.5371 6.29 63.8671 6.56 63.0871 6.56ZM56.1871 23V19.4H61.2271V11.72H56.5471V8.12H65.0071V19.4H69.3271V23H56.1871ZM74.2863 23V8.12H78.0663V10.34H78.6063C78.9463 9.5 79.4963 8.85 80.2563 8.39C81.0163 7.93 81.9063 7.7 82.9263 7.7C83.8863 7.7 84.7563 7.91 85.5363 8.33C86.3363 8.73 86.9663 9.37 87.4263 10.25C87.9063 11.11 88.1463 12.22 88.1463 13.58V23H84.3663V14.54C84.3663 13.48 84.1063 12.65 83.5863 12.05C83.0863 11.43 82.3563 11.12 81.3963 11.12C80.2963 11.12 79.4663 11.5 78.9063 12.26C78.3463 13 78.0663 14 78.0663 15.26V23H74.2863ZM94.7254 29V25.4H102.465C103.005 25.4 103.275 25.1 103.275 24.5V20.84H102.735C102.435 21.5 101.935 22.1 101.235 22.64C100.555 23.16 99.5054 23.42 98.0854 23.42C96.8654 23.42 95.7654 23.13 94.7854 22.55C93.8054 21.95 93.0254 21.09 92.4454 19.97C91.8654 18.83 91.5754 17.45 91.5754 15.83V15.29C91.5754 13.69 91.8754 12.33 92.4754 11.21C93.0954 10.07 93.9054 9.2 94.9054 8.6C95.9254 8 97.0354 7.7 98.2354 7.7C99.4354 7.7 100.385 7.93 101.085 8.39C101.805 8.83 102.355 9.46 102.735 10.28H103.275V8.12H107.055V26.66C107.055 27.34 106.835 27.9 106.395 28.34C105.975 28.78 105.425 29 104.745 29H94.7254ZM99.3154 19.82C100.495 19.82 101.445 19.45 102.165 18.71C102.905 17.95 103.275 16.96 103.275 15.74V15.38C103.275 14.16 102.905 13.18 102.165 12.44C101.445 11.68 100.495 11.3 99.3154 11.3C98.1554 11.3 97.2054 11.67 96.4654 12.41C95.7254 13.15 95.3554 14.14 95.3554 15.38V15.74C95.3554 16.98 95.7254 17.97 96.4654 18.71C97.2054 19.45 98.1554 19.82 99.3154 19.82ZM136.594 23.42C135.054 23.42 133.804 23.17 132.844 22.67C131.904 22.17 131.184 21.56 130.684 20.84C130.204 20.12 129.894 19.42 129.754 18.74L133.234 17.6C133.394 18.22 133.734 18.78 134.254 19.28C134.774 19.76 135.554 20 136.594 20C137.534 20 138.174 19.86 138.514 19.58C138.874 19.28 139.054 18.96 139.054 18.62C139.054 18.22 138.844 17.87 138.424 17.57C138.004 17.27 137.164 17.07 135.904 16.97C134.244 16.83 132.914 16.39 131.914 15.65C130.914 14.91 130.414 13.84 130.414 12.44V12.26C130.414 11.28 130.684 10.45 131.224 9.77C131.764 9.09 132.464 8.58 133.324 8.24C134.184 7.88 135.094 7.7 136.054 7.7C137.314 7.7 138.354 7.9 139.174 8.3C139.994 8.68 140.634 9.16 141.094 9.74C141.574 10.32 141.914 10.9 142.114 11.48L138.694 12.86C138.514 12.32 138.204 11.9 137.764 11.6C137.324 11.28 136.754 11.12 136.054 11.12C135.434 11.12 134.954 11.24 134.614 11.48C134.294 11.7 134.134 11.98 134.134 12.32C134.134 12.8 134.384 13.14 134.884 13.34C135.384 13.54 136.294 13.72 137.614 13.88C139.134 14.04 140.374 14.5 141.334 15.26C142.294 16 142.774 17.04 142.774 18.38V18.56C142.774 20.02 142.234 21.2 141.154 22.1C140.074 22.98 138.554 23.42 136.594 23.42ZM154.603 23.42C153.243 23.42 151.973 23.12 150.793 22.52C149.613 21.92 148.663 21.05 147.943 19.91C147.223 18.77 146.863 17.38 146.863 15.74V15.38C146.863 13.76 147.223 12.38 147.943 11.24C148.663 10.08 149.613 9.2 150.793 8.6C151.973 8 153.243 7.7 154.603 7.7C155.963 7.7 157.233 8 158.413 8.6C159.593 9.2 160.543 10.08 161.263 11.24C161.983 12.38 162.343 13.76 162.343 15.38V15.74C162.343 17.38 161.983 18.77 161.263 19.91C160.543 21.05 159.593 21.92 158.413 22.52C157.233 23.12 155.963 23.42 154.603 23.42ZM154.603 19.82C155.703 19.82 156.633 19.47 157.393 18.77C158.173 18.05 158.563 17.08 158.563 15.86V15.26C158.563 14.02 158.173 13.05 157.393 12.35C156.633 11.65 155.703 11.3 154.603 11.3C153.503 11.3 152.563 11.65 151.783 12.35C151.023 13.05 150.643 14.02 150.643 15.26V15.86C150.643 17.08 151.023 18.05 151.783 18.77C152.563 19.47 153.503 19.82 154.603 19.82ZM172.972 23.42C171.612 23.42 170.342 23.12 169.162 22.52C167.982 21.92 167.032 21.05 166.312 19.91C165.592 18.77 165.232 17.38 165.232 15.74V15.38C165.232 13.76 165.592 12.38 166.312 11.24C167.032 10.08 167.982 9.2 169.162 8.6C170.342 8 171.612 7.7 172.972 7.7C174.332 7.7 175.602 8 176.782 8.6C177.962 9.2 178.912 10.08 179.632 11.24C180.352 12.38 180.712 13.76 180.712 15.38V15.74C180.712 17.38 180.352 18.77 179.632 19.91C178.912 21.05 177.962 21.92 176.782 22.52C175.602 23.12 174.332 23.42 172.972 23.42ZM172.972 19.82C174.072 19.82 175.002 19.47 175.762 18.77C176.542 18.05 176.932 17.08 176.932 15.86V15.26C176.932 14.02 176.542 13.05 175.762 12.35C175.002 11.65 174.072 11.3 172.972 11.3C171.872 11.3 170.932 11.65 170.152 12.35C169.392 13.05 169.012 14.02 169.012 15.26V15.86C169.012 17.08 169.392 18.05 170.152 18.77C170.932 19.47 171.872 19.82 172.972 19.82ZM184.501 23V8.12H188.281V10.34H188.821C189.161 9.5 189.711 8.85 190.471 8.39C191.231 7.93 192.121 7.7 193.141 7.7C194.101 7.7 194.971 7.91 195.751 8.33C196.551 8.73 197.181 9.37 197.641 10.25C198.121 11.11 198.361 12.22 198.361 13.58V23H194.581V14.54C194.581 13.48 194.321 12.65 193.801 12.05C193.301 11.43 192.571 11.12 191.611 11.12C190.511 11.12 189.681 11.5 189.121 12.26C188.561 13 188.281 14 188.281 15.26V23H184.501Z" fill="#E4E6F3"/>
</svg>
