<svg width="256" height="32" viewBox="0 0 256 32" fill="none" xmlns="http://www.w3.org/2000/svg">
<path d="M8.89602 26.42C7.05602 26.42 5.50602 26.09 4.24602 25.43C3.00602 24.75 2.06602 23.83 1.42602 22.67C0.806016 21.51 0.496016 20.2 0.496016 18.74V17.84H4.45602V18.56C4.45602 19.82 4.82602 20.83 5.56602 21.59C6.30602 22.33 7.43602 22.7 8.95602 22.7C10.156 22.7 11.046 22.44 11.626 21.92C12.206 21.4 12.496 20.78 12.496 20.06C12.496 19.6 12.386 19.18 12.166 18.8C11.946 18.4 11.546 18.06 10.966 17.78C10.386 17.48 9.55602 17.24 8.47602 17.06C7.07602 16.82 5.82602 16.47 4.72602 16.01C3.64602 15.55 2.78602 14.91 2.14602 14.09C1.52602 13.25 1.21602 12.14 1.21602 10.76V10.58C1.21602 9.44 1.51602 8.42 2.11602 7.52C2.71602 6.6 3.55602 5.88 4.63602 5.36C5.73602 4.84 7.01602 4.58 8.47602 4.58C10.136 4.58 11.536 4.88 12.676 5.48C13.816 6.08 14.676 6.88 15.256 7.88C15.856 8.86 16.156 9.92 16.156 11.06V12.14H12.196V11.42C12.196 10.58 11.866 9.85 11.206 9.23C10.566 8.61 9.65602 8.3 8.47602 8.3C7.49602 8.3 6.70602 8.51 6.10602 8.93C5.52602 9.33 5.23602 9.88 5.23602 10.58C5.23602 11.3 5.54602 11.88 6.16602 12.32C6.80602 12.76 7.99602 13.14 9.73602 13.46C11.936 13.84 13.616 14.51 14.776 15.47C15.936 16.41 16.516 17.8 16.516 19.64V20C16.516 21.94 15.836 23.5 14.476 24.68C13.116 25.84 11.256 26.42 8.89602 26.42ZM26.4252 26C25.7452 26 25.1852 25.78 24.7452 25.34C24.3252 24.9 24.1152 24.34 24.1152 23.66V14.72H19.7052V11.12H24.1152V5H27.8952V11.12H33.2652V14.72H27.8952V21.5C27.8952 22.1 28.1652 22.4 28.7052 22.4H32.7252V26H26.4252ZM37.4143 26V22.4H40.4743V14.72H37.7743V11.12H44.0743V13.28H44.6143C44.8943 12.46 45.3743 11.83 46.0543 11.39C46.7343 10.93 47.5343 10.7 48.4543 10.7C49.9343 10.7 51.1243 11.17 52.0243 12.11C52.9243 13.03 53.3743 14.44 53.3743 16.34V17L49.4743 17.36V16.94C49.4743 16.12 49.2643 15.47 48.8443 14.99C48.4243 14.49 47.7943 14.24 46.9543 14.24C46.1143 14.24 45.4543 14.53 44.9743 15.11C44.4943 15.69 44.2543 16.52 44.2543 17.6V22.4H47.6743V26H37.4143ZM62.2934 26.42C61.1134 26.42 60.0234 26.12 59.0234 25.52C58.0234 24.92 57.2234 24.05 56.6234 22.91C56.0234 21.77 55.7234 20.4 55.7234 18.8V18.32C55.7234 16.74 56.0134 15.38 56.5934 14.24C57.1734 13.1 57.9434 12.23 58.9034 11.63C59.8834 11.01 60.9534 10.7 62.1134 10.7C63.1734 10.7 64.0234 10.88 64.6634 11.24C65.3234 11.6 65.8434 12.16 66.2234 12.92H66.7634V11.12H70.5434V21.5C70.5434 22.1 70.8134 22.4 71.3534 22.4H71.9234V26H69.3434C68.6634 26 68.1034 25.8 67.6634 25.4C67.2434 24.98 67.0334 24.46 67.0334 23.84H66.4934C66.1134 24.76 65.5534 25.42 64.8134 25.82C64.0934 26.22 63.2534 26.42 62.2934 26.42ZM63.1334 22.82C64.2334 22.82 65.1134 22.46 65.7734 21.74C66.4334 21 66.7634 20 66.7634 18.74V18.38C66.7634 17.12 66.4334 16.13 65.7734 15.41C65.1134 14.67 64.2334 14.3 63.1334 14.3C62.0334 14.3 61.1534 14.67 60.4934 15.41C59.8334 16.13 59.5034 17.12 59.5034 18.38V18.74C59.5034 20 59.8334 21 60.4934 21.74C61.1534 22.46 62.0334 22.82 63.1334 22.82ZM75.2326 26V11.12H79.0126V13.34H79.5526C79.8926 12.5 80.4426 11.85 81.2026 11.39C81.9626 10.93 82.8526 10.7 83.8726 10.7C84.8326 10.7 85.7026 10.91 86.4826 11.33C87.2826 11.73 87.9126 12.37 88.3726 13.25C88.8526 14.11 89.0926 15.22 89.0926 16.58V26H85.3126V17.54C85.3126 16.48 85.0526 15.65 84.5326 15.05C84.0326 14.43 83.3026 14.12 82.3426 14.12C81.2426 14.12 80.4126 14.5 79.8526 15.26C79.2926 16 79.0126 17 79.0126 18.26V26H75.2326ZM95.6717 32V28.4H103.412C103.952 28.4 104.222 28.1 104.222 27.5V23.84H103.682C103.382 24.5 102.882 25.1 102.182 25.64C101.502 26.16 100.452 26.42 99.0317 26.42C97.8117 26.42 96.7117 26.13 95.7317 25.55C94.7517 24.95 93.9717 24.09 93.3917 22.97C92.8117 21.83 92.5217 20.45 92.5217 18.83V18.29C92.5217 16.69 92.8217 15.33 93.4217 14.21C94.0417 13.07 94.8517 12.2 95.8517 11.6C96.8717 11 97.9817 10.7 99.1817 10.7C100.382 10.7 101.332 10.93 102.032 11.39C102.752 11.83 103.302 12.46 103.682 13.28H104.222V11.12H108.002V29.66C108.002 30.34 107.782 30.9 107.342 31.34C106.922 31.78 106.372 32 105.692 32H95.6717ZM100.262 22.82C101.442 22.82 102.392 22.45 103.112 21.71C103.852 20.95 104.222 19.96 104.222 18.74V18.38C104.222 17.16 103.852 16.18 103.112 15.44C102.392 14.68 101.442 14.3 100.262 14.3C99.1017 14.3 98.1517 14.67 97.4117 15.41C96.6717 16.15 96.3017 17.14 96.3017 18.38V18.74C96.3017 19.98 96.6717 20.97 97.4117 21.71C98.1517 22.45 99.1017 22.82 100.262 22.82ZM118.961 26.42C117.481 26.42 116.171 26.11 115.031 25.49C113.891 24.85 113.001 23.94 112.361 22.76C111.721 21.58 111.401 20.16 111.401 18.5V18.32C111.401 16.8 111.741 15.47 112.421 14.33C113.101 13.19 114.001 12.3 115.121 11.66C116.261 11.02 117.521 10.7 118.901 10.7C120.181 10.7 121.281 10.92 122.201 11.36C123.121 11.8 123.871 12.37 124.451 13.07C125.051 13.77 125.491 14.54 125.771 15.38C126.071 16.2 126.221 17 126.221 17.78V19.79H115.301C115.341 20.67 115.711 21.4 116.411 21.98C117.111 22.54 117.941 22.82 118.901 22.82C119.841 22.82 120.561 22.65 121.061 22.31C121.581 21.97 121.941 21.58 122.141 21.14L125.381 22.94C125.161 23.44 124.791 23.96 124.271 24.5C123.771 25.04 123.091 25.5 122.231 25.88C121.371 26.24 120.281 26.42 118.961 26.42ZM115.361 16.55H122.381C122.261 15.85 121.881 15.27 121.241 14.81C120.621 14.35 119.831 14.12 118.871 14.12C117.931 14.12 117.151 14.37 116.531 14.87C115.931 15.35 115.541 15.91 115.361 16.55ZM128.66 26V5H135.62L136.82 20.78V23.84H137.54V20.78L138.74 5H145.7V26H142.1V11.96L142.46 7.16H141.74L140.18 26H134.24L132.62 7.16H131.9L132.26 11.96V26H128.66ZM154.139 26.42C152.959 26.42 151.869 26.12 150.869 25.52C149.869 24.92 149.069 24.05 148.469 22.91C147.869 21.77 147.569 20.4 147.569 18.8V18.32C147.569 16.74 147.859 15.38 148.439 14.24C149.019 13.1 149.789 12.23 150.749 11.63C151.729 11.01 152.799 10.7 153.959 10.7C155.019 10.7 155.869 10.88 156.509 11.24C157.169 11.6 157.689 12.16 158.069 12.92H158.609V11.12H162.389V21.5C162.389 22.1 162.659 22.4 163.199 22.4H163.769V26H161.189C160.509 26 159.949 25.8 159.509 25.4C159.089 24.98 158.879 24.46 158.879 23.84H158.339C157.959 24.76 157.399 25.42 156.659 25.82C155.939 26.22 155.099 26.42 154.139 26.42ZM154.979 22.82C156.079 22.82 156.959 22.46 157.619 21.74C158.279 21 158.609 20 158.609 18.74V18.38C158.609 17.12 158.279 16.13 157.619 15.41C156.959 14.67 156.079 14.3 154.979 14.3C153.879 14.3 152.999 14.67 152.339 15.41C151.679 16.13 151.349 17.12 151.349 18.38V18.74C151.349 20 151.679 21 152.339 21.74C152.999 22.46 153.879 22.82 154.979 22.82ZM173.378 26C172.698 26 172.138 25.78 171.698 25.34C171.278 24.9 171.068 24.34 171.068 23.66V14.72H166.658V11.12H171.068V5H174.848V11.12H180.218V14.72H174.848V21.5C174.848 22.1 175.118 22.4 175.658 22.4H179.678V26H173.378ZM191.747 26C191.067 26 190.507 25.78 190.067 25.34C189.647 24.9 189.437 24.34 189.437 23.66V14.72H185.027V11.12H189.437V5H193.217V11.12H198.587V14.72H193.217V21.5C193.217 22.1 193.487 22.4 194.027 22.4H198.047V26H191.747ZM210.807 26.42C209.327 26.42 208.017 26.11 206.877 25.49C205.737 24.85 204.847 23.94 204.207 22.76C203.567 21.58 203.247 20.16 203.247 18.5V18.32C203.247 16.8 203.587 15.47 204.267 14.33C204.947 13.19 205.847 12.3 206.967 11.66C208.107 11.02 209.367 10.7 210.747 10.7C212.027 10.7 213.127 10.92 214.047 11.36C214.967 11.8 215.717 12.37 216.297 13.07C216.897 13.77 217.337 14.54 217.617 15.38C217.917 16.2 218.067 17 218.067 17.78V19.79H207.147C207.187 20.67 207.557 21.4 208.257 21.98C208.957 22.54 209.787 22.82 210.747 22.82C211.687 22.82 212.407 22.65 212.907 22.31C213.427 21.97 213.787 21.58 213.987 21.14L217.227 22.94C217.007 23.44 216.637 23.96 216.117 24.5C215.617 25.04 214.937 25.5 214.077 25.88C213.217 26.24 212.127 26.42 210.807 26.42ZM207.207 16.55H214.227C214.107 15.85 213.727 15.27 213.087 14.81C212.467 14.35 211.677 14.12 210.717 14.12C209.777 14.12 208.997 14.37 208.377 14.87C207.777 15.35 207.387 15.91 207.207 16.55ZM221.106 26V22.4H224.166V14.72H221.466V11.12H227.766V13.28H228.306C228.586 12.46 229.066 11.83 229.746 11.39C230.426 10.93 231.226 10.7 232.146 10.7C233.626 10.7 234.816 11.17 235.716 12.11C236.616 13.03 237.066 14.44 237.066 16.34V17L233.166 17.36V16.94C233.166 16.12 232.956 15.47 232.536 14.99C232.116 14.49 231.486 14.24 230.646 14.24C229.806 14.24 229.146 14.53 228.666 15.11C228.186 15.69 227.946 16.52 227.946 17.6V22.4H231.366V26H221.106ZM247.395 17.66C246.255 17.66 245.175 17.45 244.155 17.03C243.155 16.59 242.265 15.99 241.485 15.23C240.725 14.45 240.125 13.56 239.685 12.56C239.265 11.54 239.055 10.46 239.055 9.32C239.055 8.18 239.265 7.11 239.685 6.11C240.125 5.09 240.725 4.2 241.485 3.44C242.265 2.66 243.155 2.06 244.155 1.64C245.175 1.2 246.255 0.979998 247.395 0.979998C248.535 0.979998 249.605 1.2 250.605 1.64C251.625 2.06 252.515 2.66 253.275 3.44C254.055 4.2 254.655 5.09 255.075 6.11C255.515 7.11 255.735 8.18 255.735 9.32C255.735 10.46 255.515 11.54 255.075 12.56C254.655 13.56 254.055 14.45 253.275 15.23C252.515 15.99 251.625 16.59 250.605 17.03C249.605 17.45 248.535 17.66 247.395 17.66ZM247.395 15.32C248.515 15.32 249.525 15.05 250.425 14.51C251.325 13.97 252.045 13.25 252.585 12.35C253.125 11.43 253.395 10.42 253.395 9.32C253.395 8.2 253.125 7.19 252.585 6.29C252.045 5.39 251.325 4.67 250.425 4.13C249.525 3.59 248.515 3.32 247.395 3.32C246.295 3.32 245.285 3.59 244.365 4.13C243.465 4.67 242.745 5.39 242.205 6.29C241.665 7.19 241.395 8.2 241.395 9.32C241.395 10.42 241.665 11.43 242.205 12.35C242.745 13.25 243.465 13.97 244.365 14.51C245.285 15.05 246.295 15.32 247.395 15.32ZM244.695 13.64V5H247.875C248.775 5 249.455 5.24 249.915 5.72C250.395 6.2 250.635 6.76 250.635 7.4C250.635 8.46 250.235 9.15 249.435 9.47V9.74C249.795 9.76 250.055 9.9 250.215 10.16C250.375 10.4 250.455 10.66 250.455 10.94V13.64H248.115V11.51C248.115 11.29 248.045 11.11 247.905 10.97C247.785 10.83 247.605 10.76 247.365 10.76H247.035V13.64H244.695ZM247.035 8.6H247.515C248.035 8.6 248.295 8.36 248.295 7.88C248.295 7.4 248.035 7.16 247.515 7.16H247.035V8.6Z" fill="#360CCC"/>
</svg>
