<svg width="413" height="59" viewBox="0 0 413 59" fill="none" xmlns="http://www.w3.org/2000/svg">
<g filter="url(#filter0_g_17_65)">
<path d="M26.3378 32.1172C26.3378 28.6292 24.2572 26.2427 19.5454 26.2427H7.06205C4.49195 26.2427 2.77855 24.5293 2.77855 21.9592V6.53862C2.77855 3.96853 4.49195 2.25513 7.06205 2.25513H29.275C31.3556 2.25513 32.763 3.66256 32.763 5.74312C32.763 7.88487 31.3556 9.2923 29.275 9.2923H16.3634C12.2022 9.2923 10.4277 11.2505 10.4277 14.3101C10.4277 17.2474 12.2022 19.2055 16.3634 19.2055H29.7034C32.2735 19.2055 33.9869 20.9189 33.9869 23.489V40.8066C33.9869 43.3767 32.2735 45.0901 29.7034 45.0901H5.71581C3.57406 45.0901 2.16663 43.6827 2.16663 41.5409C2.16663 39.4604 3.57406 38.0529 5.71581 38.0529H19.5454C24.2572 38.0529 26.3378 35.7276 26.3378 32.1172Z" fill="black"/>
<path d="M49.6126 23.3666V32.9127C49.6126 36.7067 51.5707 38.6648 55.3647 38.6648H56.7721C57.6288 38.6648 58.1796 39.2156 58.1796 40.0723V41.8469C58.1796 43.805 56.8945 45.0901 54.9975 45.0901H46.5529C43.9828 45.0901 42.2694 43.3767 42.2694 40.8066V23.3666C42.2694 21.3473 40.9232 20.001 38.9038 20.001H38.5979V15.1056C38.5979 14.0041 39.3322 13.2698 40.4336 13.2698H42.2694V9.59826C42.2694 7.39532 43.7381 5.9267 45.941 5.9267C48.1439 5.9267 49.6126 7.39532 49.6126 9.59826V13.2698H52.9782C54.9975 13.2698 56.3438 14.6161 56.3438 16.6354V18.2876C56.3438 19.3279 55.6707 20.001 54.6916 20.001H52.9782C50.9588 20.001 49.6126 21.3473 49.6126 23.3666Z" fill="black"/>
<path d="M77.0881 20.001C73.2942 20.001 70.7241 22.5711 70.7241 26.3651V41.4185C70.7241 43.6215 69.2555 45.0901 67.0525 45.0901C64.8496 45.0901 63.3809 43.6215 63.3809 41.4185V17.5533C63.3809 14.9832 65.0943 13.2698 67.6644 13.2698H78.3732C80.3925 13.2698 81.7388 14.6161 81.7388 16.6354V17.6757C81.7388 19.0832 80.8209 20.001 79.4135 20.001H77.0881Z" fill="black"/>
<path d="M83.8949 35.9724C83.8949 29.6083 88.6679 26.8546 96.623 26.8546H104.578V25.4472C104.578 21.4697 102.13 19.3891 97.9692 19.3891C95.7051 19.3891 94.2976 20.001 93.4409 20.9189C92.2171 22.0816 90.8709 23.489 88.6679 23.489C86.465 23.489 84.874 22.0204 85.6083 20.0622C87.2605 15.9011 91.8499 12.8415 98.214 12.8415C106.72 12.8415 111.921 18.1041 111.921 26.8546V40.8066C111.921 43.3767 110.208 45.0901 107.638 45.0901H96.623C88.6679 45.0901 83.8949 42.3364 83.8949 35.9724ZM91.2992 35.9724C91.2992 38.0529 93.6245 38.9096 97.908 38.9096C102.192 38.9096 104.578 38.0529 104.578 35.9724C104.578 33.8918 102.192 33.0351 97.908 33.0351C93.6245 33.0351 91.2992 33.8918 91.2992 35.9724Z" fill="black"/>
<path d="M126.001 26.4875V41.4185C126.001 43.6215 124.532 45.0901 122.329 45.0901C120.126 45.0901 118.658 43.6215 118.658 41.4185V17.5533C118.658 14.9832 120.371 13.2698 122.941 13.2698H141.911C144.481 13.2698 146.194 14.9832 146.194 17.5533V41.4185C146.194 43.6215 144.726 45.0901 142.523 45.0901C140.32 45.0901 138.851 43.6215 138.851 41.4185V26.4875C138.851 22.6935 136.281 20.1234 132.365 20.1234C128.571 20.1234 126.001 22.6935 126.001 26.4875Z" fill="black"/>
<path d="M170.507 45.0901H166.713C158.146 45.0901 152.333 39.5827 152.333 29.18C152.333 18.7772 158.146 13.2698 166.713 13.2698H176.076C178.646 13.2698 180.359 14.9832 180.359 17.5533V51.8213C180.359 54.3914 178.646 56.1048 176.076 56.1048H158.024C156.066 56.1048 154.781 54.8198 154.781 52.9228C154.781 50.9646 156.066 49.6796 158.024 49.6796H170.507C172.159 49.6796 173.016 48.7617 173.016 47.3542C173.016 46.008 172.159 45.0901 170.507 45.0901ZM159.737 29.18C159.737 35.544 162.062 38.2977 166.346 38.2977C170.629 38.2977 173.016 35.544 173.016 29.18C173.016 22.8159 170.629 20.0622 166.346 20.0622C162.062 20.0622 159.737 22.8159 159.737 29.18Z" fill="black"/>
<path d="M194.777 34.5649C194.777 37.3186 197.776 38.6648 200.835 38.6648C202.426 38.6648 204.323 38.2977 205.608 37.135C206.955 36.0336 208.484 34.6873 210.504 34.6873H210.871C213.135 34.6873 214.42 36.1559 213.441 38.1753C211.116 43.0707 206.281 45.5184 200.652 45.5184C192.085 45.5184 186.455 39.5827 186.455 29.18C186.455 18.7772 192.146 12.8415 200.774 12.8415C209.647 12.8415 213.38 18.8996 214.114 26.9158C214.359 29.4247 212.584 31.0769 210.075 31.0769H200.346C196.613 31.0769 194.777 32.4232 194.777 34.5649ZM195.94 22.4488C195.94 23.9786 197.837 24.9577 200.59 24.9577C203.344 24.9577 205.058 23.9786 205.058 22.4488C205.058 20.9189 203.344 19.6951 200.59 19.6951C197.837 19.6951 195.94 20.9189 195.94 22.4488Z" fill="black"/>
<path d="M229.292 32.7291V41.2349C229.292 43.5603 227.763 45.0901 225.498 45.0901C223.173 45.0901 221.643 43.5603 221.643 41.2349V6.23266C221.643 3.84614 223.234 2.25513 225.621 2.25513H226.539C228.374 2.25513 230.027 3.41779 230.577 5.13119L237.064 23.8562C238.226 27.2218 239.022 28.874 240.307 28.874C241.531 28.874 242.326 27.2218 243.489 23.8562L249.975 5.13119C250.526 3.41779 252.178 2.25513 254.014 2.25513H254.932C257.319 2.25513 258.91 3.84614 258.91 6.23266V41.2349C258.91 43.5603 257.38 45.0901 255.116 45.0901C252.79 45.0901 251.261 43.5603 251.261 41.2349V32.7291C251.261 29.9755 250.955 29.18 250.281 29.18C249.608 29.18 248.996 30.4038 248.384 32.3008L245.08 42.1528C244.468 43.9274 242.877 45.0901 241.041 45.0901H239.512C237.676 45.0901 236.085 43.9274 235.473 42.1528L232.168 32.3008C231.556 30.4038 230.945 29.18 230.271 29.18C229.598 29.18 229.292 29.9755 229.292 32.7291Z" fill="black"/>
<path d="M265.322 35.9724C265.322 29.6083 270.095 26.8546 278.05 26.8546H286.005V25.4472C286.005 21.4697 283.557 19.3891 279.396 19.3891C277.132 19.3891 275.725 20.001 274.868 20.9189C273.644 22.0816 272.298 23.489 270.095 23.489C267.892 23.489 266.301 22.0204 267.035 20.0622C268.688 15.9011 273.277 12.8415 279.641 12.8415C288.147 12.8415 293.348 18.1041 293.348 26.8546V40.8066C293.348 43.3767 291.635 45.0901 289.065 45.0901H278.05C270.095 45.0901 265.322 42.3364 265.322 35.9724ZM272.726 35.9724C272.726 38.0529 275.052 38.9096 279.335 38.9096C283.619 38.9096 286.005 38.0529 286.005 35.9724C286.005 33.8918 283.619 33.0351 279.335 33.0351C275.052 33.0351 272.726 33.8918 272.726 35.9724Z" fill="black"/>
<path d="M309.264 23.3666V32.9127C309.264 36.7067 311.222 38.6648 315.016 38.6648H316.423C317.28 38.6648 317.831 39.2156 317.831 40.0723V41.8469C317.831 43.805 316.546 45.0901 314.649 45.0901H306.204C303.634 45.0901 301.921 43.3767 301.921 40.8066V23.3666C301.921 21.3473 300.574 20.001 298.555 20.001H298.249V15.1056C298.249 14.0041 298.983 13.2698 300.085 13.2698H301.921V9.59826C301.921 7.39532 303.389 5.9267 305.592 5.9267C307.795 5.9267 309.264 7.39532 309.264 9.59826V13.2698H312.629C314.649 13.2698 315.995 14.6161 315.995 16.6354V18.2876C315.995 19.3279 315.322 20.001 314.343 20.001H312.629C310.61 20.001 309.264 21.3473 309.264 23.3666Z" fill="black"/>
<path d="M332.211 23.3666V32.9127C332.211 36.7067 334.169 38.6648 337.963 38.6648H339.371C340.227 38.6648 340.778 39.2156 340.778 40.0723V41.8469C340.778 43.805 339.493 45.0901 337.596 45.0901H329.151C326.581 45.0901 324.868 43.3767 324.868 40.8066V23.3666C324.868 21.3473 323.522 20.001 321.502 20.001H321.196V15.1056C321.196 14.0041 321.931 13.2698 323.032 13.2698H324.868V9.59826C324.868 7.39532 326.336 5.9267 328.539 5.9267C330.742 5.9267 332.211 7.39532 332.211 9.59826V13.2698H335.577C337.596 13.2698 338.942 14.6161 338.942 16.6354V18.2876C338.942 19.3279 338.269 20.001 337.29 20.001H335.577C333.557 20.001 332.211 21.3473 332.211 23.3666Z" fill="black"/>
<path d="M352.48 34.5649C352.48 37.3186 355.479 38.6648 358.538 38.6648C360.129 38.6648 362.026 38.2977 363.311 37.135C364.658 36.0336 366.187 34.6873 368.207 34.6873H368.574C370.838 34.6873 372.123 36.1559 371.144 38.1753C368.819 43.0707 363.984 45.5184 358.355 45.5184C349.788 45.5184 344.158 39.5827 344.158 29.18C344.158 18.7772 349.849 12.8415 358.477 12.8415C367.35 12.8415 371.083 18.8996 371.817 26.9158C372.062 29.4247 370.287 31.0769 367.778 31.0769H358.049C354.316 31.0769 352.48 32.4232 352.48 34.5649ZM353.643 22.4488C353.643 23.9786 355.54 24.9577 358.293 24.9577C361.047 24.9577 362.761 23.9786 362.761 22.4488C362.761 20.9189 361.047 19.6951 358.293 19.6951C355.54 19.6951 353.643 20.9189 353.643 22.4488Z" fill="black"/>
<path d="M392.135 20.001C388.342 20.001 385.771 22.5711 385.771 26.3651V41.4185C385.771 43.6215 384.303 45.0901 382.1 45.0901C379.897 45.0901 378.428 43.6215 378.428 41.4185V17.5533C378.428 14.9832 380.142 13.2698 382.712 13.2698H393.421C395.44 13.2698 396.786 14.6161 396.786 16.6354V17.6757C396.786 19.0832 395.868 20.001 394.461 20.001H392.135Z" fill="black"/>
<path d="M402.977 18.8228C402.977 19.1197 402.782 19.315 402.493 19.315C402.196 19.315 402.001 19.1197 402.001 18.8228V15.5809C402.001 15.0497 401.798 14.7451 401.181 14.7451H400.868C400.673 14.7451 400.548 14.6201 400.548 14.4248V14.292C400.548 14.0264 400.728 13.8467 401.001 13.8467H403.985C404.251 13.8467 404.43 14.0264 404.43 14.292V14.4248C404.43 14.6201 404.305 14.7451 404.118 14.7451H403.798C403.181 14.7451 402.977 15.0497 402.977 15.5809V18.8228Z" fill="black"/>
<path d="M406.224 17.737V18.8228C406.224 19.1197 406.029 19.315 405.74 19.315C405.443 19.315 405.248 19.1197 405.248 18.8228V14.3545C405.248 14.0498 405.451 13.8467 405.756 13.8467H405.873C406.107 13.8467 406.318 13.9951 406.388 14.2138L407.216 16.6043C407.365 17.0339 407.466 17.2448 407.631 17.2448C407.787 17.2448 407.888 17.0339 408.037 16.6043L408.865 14.2138C408.935 13.9951 409.146 13.8467 409.38 13.8467H409.498C409.802 13.8467 410.005 14.0498 410.005 14.3545V18.8228C410.005 19.1197 409.81 19.315 409.521 19.315C409.224 19.315 409.029 19.1197 409.029 18.8228V17.737C409.029 17.3855 408.99 17.2839 408.904 17.2839C408.818 17.2839 408.74 17.4401 408.662 17.6823L408.24 18.94C408.162 19.1666 407.959 19.315 407.724 19.315H407.529C407.295 19.315 407.092 19.1666 407.013 18.94L406.592 17.6823C406.513 17.4401 406.435 17.2839 406.349 17.2839C406.263 17.2839 406.224 17.3855 406.224 17.737Z" fill="black"/>
</g>
<defs>
<filter id="filter0_g_17_65" x="0.0666261" y="0.155127" width="412.039" height="58.0497" filterUnits="userSpaceOnUse" color-interpolation-filters="sRGB">
<feFlood flood-opacity="0" result="BackgroundImageFix"/>
<feBlend mode="normal" in="SourceGraphic" in2="BackgroundImageFix" result="shape"/>
<feTurbulence type="fractalNoise" baseFrequency="2.5 2.5" numOctaves="3" seed="496" />
<feDisplacementMap in="shape" scale="4.1999998092651367" xChannelSelector="R" yChannelSelector="G" result="displacedImage" width="100%" height="100%" />
<feMerge result="effect1_texture_17_65">
<feMergeNode in="displacedImage"/>
</feMerge>
</filter>
</defs>
</svg>
